<svg width="1674" height="1250" viewBox="0 0 1674 1250" fill="none" xmlns="http://www.w3.org/2000/svg">
<path opacity="0.7" d="M270.999 333.327C270.999 334.8 270.261 335.537 268.786 335.537C267.311 335.537 266.573 334.8 266.573 333.327C266.573 331.853 267.311 331.116 268.786 331.116C269.524 331.116 270.999 331.853 270.999 333.327Z" fill="white"/>
<path opacity="0.7" d="M361.729 333.327C361.729 334.064 360.991 334.801 360.253 334.801C359.516 334.801 358.778 334.064 358.778 333.327C358.778 332.59 359.516 331.853 360.253 331.853C360.991 331.117 361.729 331.853 361.729 333.327Z" fill="white"/>
<path opacity="0.7" d="M182.483 451.953C182.483 452.69 181.746 453.427 181.008 453.427C180.27 453.427 179.533 452.69 179.533 451.953C179.533 451.216 180.27 450.479 181.008 450.479C181.746 450.479 182.483 451.216 182.483 451.953Z" fill="white"/>
<path opacity="0.7" d="M1204.86 362.062C1204.86 362.799 1204.12 363.536 1203.39 363.536C1202.65 363.536 1201.91 362.799 1201.91 362.062C1201.91 361.326 1202.65 360.589 1203.39 360.589C1204.12 360.589 1204.86 361.326 1204.86 362.062Z" fill="white"/>
<path opacity="0.7" d="M380.911 245.646C380.911 246.383 380.174 247.12 379.436 247.12C378.698 247.12 377.961 246.383 377.961 245.646C377.961 244.91 378.698 244.173 379.436 244.173C380.174 244.173 380.911 244.91 380.911 245.646Z" fill="white"/>
<path opacity="0.7" d="M377.958 295.012C377.958 295.749 377.221 296.486 376.483 296.486C375.745 296.486 375.008 295.749 375.008 295.012C375.008 294.275 375.745 293.538 376.483 293.538C377.221 293.538 377.958 294.275 377.958 295.012Z" fill="white"/>
<path opacity="0.7" d="M445.086 37.8656C445.086 39.3392 444.348 40.076 442.873 40.076C441.398 40.076 440.66 39.3392 440.66 37.8656C440.66 36.392 441.398 35.6552 442.873 35.6552C444.348 35.6552 445.086 37.1288 445.086 37.8656Z" fill="white"/>
<path opacity="0.7" d="M453.197 384.903C453.197 386.377 451.721 387.851 450.246 387.851C448.771 387.851 447.295 386.377 447.295 384.903C447.295 383.43 448.771 381.956 450.246 381.956C452.459 381.956 453.197 383.43 453.197 384.903Z" fill="white"/>
<path opacity="0.7" d="M322.639 15.7623C322.639 17.2359 321.164 18.7095 319.689 18.7095C318.213 18.7095 316.738 17.2359 316.738 15.7623C316.738 14.2887 318.213 12.8151 319.689 12.8151C321.164 12.8151 322.639 13.5519 322.639 15.7623Z" fill="white"/>
<path opacity="0.7" d="M77.7389 260.383C77.7389 261.857 76.2636 263.33 74.7883 263.33C73.313 263.33 71.8377 261.857 71.8377 260.383C71.8377 258.909 73.313 257.436 74.7883 257.436C76.2636 257.436 77.7389 258.909 77.7389 260.383Z" fill="white"/>
<path opacity="0.7" d="M35.6925 492.478C35.6925 493.952 34.2172 495.425 32.742 495.425C31.2667 495.425 29.7914 493.952 29.7914 492.478C29.7914 491.004 31.2667 489.531 32.742 489.531C34.9549 489.531 35.6925 491.004 35.6925 492.478Z" fill="white"/>
<path opacity="0.7" d="M179.533 276.593C179.533 278.066 178.058 279.54 176.583 279.54C175.107 279.54 173.632 278.066 173.632 276.593C173.632 275.119 175.107 273.645 176.583 273.645C178.058 273.645 179.533 275.119 179.533 276.593Z" fill="white"/>
<path opacity="0.7" d="M114.622 474.794C114.622 476.267 113.885 477.004 112.409 477.004C110.934 477.004 110.197 476.267 110.197 474.794C110.197 473.32 110.934 472.583 112.409 472.583C113.885 472.583 114.622 473.32 114.622 474.794Z" fill="white"/>
<path opacity="0.7" d="M153.717 180.07C153.717 181.544 152.979 182.28 151.504 182.28C150.029 182.28 149.291 181.544 149.291 180.07C149.291 178.596 150.029 177.86 151.504 177.86C152.979 177.86 153.717 179.333 153.717 180.07Z" fill="white"/>
<path opacity="0.7" d="M78.4771 1.76268C78.4771 2.49949 77.7395 3.23629 77.0018 3.23629C76.2642 3.23629 75.5266 2.49949 75.5266 1.76268C75.5266 1.02587 76.2642 0.289054 77.0018 0.289054C77.7395 -0.447758 78.4771 0.289059 78.4771 1.76268Z" fill="white"/>
<path opacity="0.7" d="M942.256 121.862C942.256 122.599 941.518 123.336 940.781 123.336C940.043 123.336 939.305 122.599 939.305 121.862C939.305 121.125 940.043 120.388 940.781 120.388C941.518 120.388 942.256 120.388 942.256 121.862Z" fill="white"/>
<path opacity="0.7" d="M268.053 95.3378C268.053 96.0746 267.315 96.8114 266.578 96.8114C265.84 96.8114 265.102 96.0746 265.102 95.3378C265.102 94.601 265.84 93.8641 266.578 93.8641C267.315 93.8641 268.053 94.601 268.053 95.3378Z" fill="white"/>
<path opacity="0.7" d="M751.945 521.96C751.945 522.697 751.208 523.434 750.47 523.434C749.732 523.434 748.995 522.697 748.995 521.96C748.995 521.223 749.732 520.486 750.47 520.486C751.208 520.486 751.945 521.223 751.945 521.96Z" fill="white"/>
<path opacity="0.7" d="M332.964 183.755C332.964 184.492 332.227 185.229 331.489 185.229C330.751 185.229 330.014 184.492 330.014 183.755C330.014 183.018 330.751 182.281 331.489 182.281C332.227 182.281 332.964 183.018 332.964 183.755Z" fill="white"/>
<path opacity="0.7" d="M214.2 511.635C214.2 512.372 213.463 513.109 212.725 513.109C211.987 513.109 211.25 512.372 211.25 511.635C211.25 510.898 211.987 510.161 212.725 510.161C213.463 510.161 214.2 510.898 214.2 511.635Z" fill="white"/>
<path opacity="0.7" d="M229.692 34.1826C229.692 35.6562 228.217 37.1299 226.741 37.1299C225.266 37.1299 223.791 35.6562 223.791 34.1826C223.791 32.709 225.266 31.2354 226.741 31.2354C228.217 31.2354 229.692 32.709 229.692 34.1826Z" fill="white"/>
<path opacity="0.7" d="M862.589 102.705C862.589 104.178 861.114 105.652 859.639 105.652C858.164 105.652 856.688 104.178 856.688 102.705C856.688 101.231 858.164 99.7574 859.639 99.7574C861.852 99.7574 862.589 100.494 862.589 102.705Z" fill="white"/>
<path opacity="0.7" d="M37.906 450.479C37.906 451.953 37.1684 452.69 35.6931 452.69C34.2178 452.69 33.4802 451.953 33.4802 450.479C33.4802 449.005 34.2178 448.269 35.6931 448.269C37.1684 448.269 37.906 449.005 37.906 450.479Z" fill="white"/>
<path opacity="0.7" d="M379.436 448.27C379.436 450.48 377.223 452.691 375.01 452.691C372.797 452.691 370.584 450.48 370.584 448.27C370.584 446.059 372.797 443.849 375.01 443.849C377.223 444.586 379.436 446.059 379.436 448.27Z" fill="white"/>
<path opacity="0.7" d="M247.395 372.377C247.395 373.113 246.657 373.85 245.919 373.85C245.182 373.85 244.444 373.113 244.444 372.377C244.444 371.64 245.182 370.903 245.919 370.903C246.657 370.166 247.395 370.903 247.395 372.377Z" fill="white"/>
<path opacity="0.7" d="M338.129 495.424C338.129 496.161 337.391 496.898 336.654 496.898C335.916 496.898 335.178 496.161 335.178 495.424C335.178 494.687 335.916 493.951 336.654 493.951C337.391 493.951 338.129 494.687 338.129 495.424Z" fill="white"/>
<path opacity="0.7" d="M1050.69 328.169C1050.69 328.906 1049.95 329.642 1049.22 329.642C1048.48 329.642 1047.74 328.906 1047.74 328.169C1047.74 327.432 1048.48 326.695 1049.22 326.695C1049.95 326.695 1050.69 327.432 1050.69 328.169Z" fill="white"/>
<path opacity="0.7" d="M1094.95 488.056C1094.95 488.793 1094.21 489.53 1093.47 489.53C1092.74 489.53 1092 488.793 1092 488.056C1092 487.319 1092.74 486.583 1093.47 486.583C1094.21 486.583 1094.95 487.319 1094.95 488.056Z" fill="white"/>
<path opacity="0.7" d="M872.18 478.479C872.18 479.215 871.442 479.952 870.705 479.952C869.967 479.952 869.229 479.215 869.229 478.479C869.229 477.742 869.967 477.005 870.705 477.005C871.442 477.005 872.18 477.742 872.18 478.479Z" fill="white"/>
<path opacity="0.7" d="M1182.73 414.376C1182.73 415.113 1181.99 415.85 1181.26 415.85C1180.52 415.85 1179.78 415.113 1179.78 414.376C1179.78 413.639 1180.52 412.903 1181.26 412.903C1181.99 412.166 1182.73 412.903 1182.73 414.376Z" fill="white"/>
<path opacity="0.7" d="M1056.6 426.901C1056.6 428.375 1055.12 429.848 1053.64 429.848C1052.17 429.848 1050.69 428.375 1050.69 426.901C1050.69 425.427 1052.17 423.954 1053.64 423.954C1055.12 423.954 1056.6 425.427 1056.6 426.901Z" fill="white"/>
<path opacity="0.7" d="M1006.43 276.593C1006.43 278.066 1004.96 279.54 1003.48 279.54C1002 279.54 1000.53 278.066 1000.53 276.593C1000.53 275.119 1002 273.645 1003.48 273.645C1004.96 273.645 1006.43 275.119 1006.43 276.593Z" fill="white"/>
<path opacity="0.7" d="M1055.86 504.267C1055.86 505.004 1055.12 505.741 1054.38 505.741C1053.64 505.741 1052.91 505.004 1052.91 504.267C1052.91 503.53 1053.64 502.793 1054.38 502.793C1055.12 502.793 1055.86 503.53 1055.86 504.267Z" fill="white"/>
<path opacity="0.7" d="M1094.95 95.3378C1094.95 96.0746 1094.21 96.8114 1093.47 96.8114C1092.74 96.8114 1092 96.0746 1092 95.3378C1092 94.601 1092.74 93.8641 1093.47 93.8641C1094.21 93.8641 1094.95 94.601 1094.95 95.3378Z" fill="white"/>
<path opacity="0.7" d="M1086.1 192.596C1086.1 193.333 1085.36 194.07 1084.62 194.07C1083.88 194.07 1083.15 193.333 1083.15 192.596C1083.15 191.859 1083.88 191.123 1084.62 191.123C1085.36 191.123 1086.1 191.859 1086.1 192.596Z" fill="white"/>
<path opacity="0.7" d="M1009.39 59.9698C1009.39 60.7066 1008.65 61.4434 1007.91 61.4434C1007.17 61.4434 1006.43 60.7066 1006.43 59.9698C1006.43 59.233 1007.17 58.4962 1007.91 58.4962C1008.65 57.7594 1009.39 58.4962 1009.39 59.9698Z" fill="white"/>
<path opacity="0.7" d="M1056.6 34.1826C1056.6 35.6562 1055.12 37.1299 1053.64 37.1299C1052.17 37.1299 1050.69 35.6562 1050.69 34.1826C1050.69 32.709 1052.17 31.2354 1053.64 31.2354C1055.12 31.2354 1056.6 32.709 1056.6 34.1826Z" fill="white"/>
<path opacity="0.7" d="M932.665 255.961C932.665 257.435 931.19 258.909 929.715 258.909C928.24 258.909 926.764 257.435 926.764 255.961C926.764 254.488 928.24 253.014 929.715 253.014C931.19 253.014 932.665 254.488 932.665 255.961Z" fill="white"/>
<path opacity="0.7" d="M894.309 370.904C894.309 371.641 893.571 372.378 892.834 372.378C892.096 372.378 891.358 371.641 891.358 370.904C891.358 370.167 892.096 369.43 892.834 369.43C893.571 369.43 894.309 370.167 894.309 370.904Z" fill="white"/>
<path opacity="0.7" d="M85.8529 507.951C85.8529 509.424 85.1153 510.161 83.64 510.161C82.1647 510.161 81.4271 509.424 81.4271 507.951C81.4271 506.477 82.1647 505.74 83.64 505.74C85.1153 505.74 85.8529 506.477 85.8529 507.951Z" fill="white"/>
<path opacity="0.7" d="M667.117 334.8C667.117 337.01 664.904 339.221 662.691 339.221C660.479 339.221 658.266 337.01 658.266 334.8C658.266 332.589 660.479 330.379 662.691 330.379C664.904 331.116 667.117 332.589 667.117 334.8Z" fill="white"/>
<path opacity="0.7" d="M615.481 328.169C615.481 328.906 614.743 329.642 614.006 329.642C613.268 329.642 612.53 328.906 612.53 328.169C612.53 327.432 613.268 326.695 614.006 326.695C614.743 326.695 615.481 327.432 615.481 328.169Z" fill="white"/>
<path opacity="0.7" d="M524.752 152.809C524.752 153.545 524.014 154.282 523.277 154.282C522.539 154.282 521.801 153.545 521.801 152.809C521.801 152.072 522.539 151.335 523.277 151.335C524.014 150.598 524.752 151.335 524.752 152.809Z" fill="white"/>
<path opacity="0.7" d="M660.475 488.056C660.475 488.793 659.738 489.53 659 489.53C658.262 489.53 657.525 488.793 657.525 488.056C657.525 487.319 658.262 486.583 659 486.583C659.738 486.583 660.475 487.319 660.475 488.056Z" fill="white"/>
<path opacity="0.7" d="M574.91 451.953C574.91 452.69 574.173 453.427 573.435 453.427C572.697 453.427 571.96 452.69 571.96 451.953C571.96 451.216 572.697 450.479 573.435 450.479C574.173 450.479 574.91 451.216 574.91 451.953Z" fill="white"/>
<path opacity="0.7" d="M770.387 512.371C770.387 513.108 769.649 513.845 768.911 513.845C768.174 513.845 767.436 513.108 767.436 512.371C767.436 511.634 768.174 510.897 768.911 510.897C769.649 510.897 770.387 511.634 770.387 512.371Z" fill="white"/>
<path opacity="0.7" d="M535.076 416.585C535.076 417.322 534.338 418.059 533.601 418.059C532.863 418.059 532.125 417.322 532.125 416.585C532.125 415.848 532.863 415.112 533.601 415.112C534.338 414.375 535.076 415.112 535.076 416.585Z" fill="white"/>
<path opacity="0.7" d="M770.387 295.012C770.387 295.749 769.649 296.486 768.911 296.486C768.174 296.486 767.436 295.749 767.436 295.012C767.436 294.275 768.174 293.538 768.911 293.538C769.649 293.538 770.387 294.275 770.387 295.012Z" fill="white"/>
<path opacity="0.7" d="M604.416 255.961C604.416 256.698 603.678 257.435 602.941 257.435C602.203 257.435 601.465 256.698 601.465 255.961C601.465 255.224 602.203 254.488 602.941 254.488C603.678 254.488 604.416 255.224 604.416 255.961Z" fill="white"/>
<path opacity="0.7" d="M422.22 334.8C422.22 336.273 420.745 337.747 419.27 337.747C417.795 337.747 416.319 336.273 416.319 334.8C416.319 333.326 417.795 331.852 419.27 331.852C420.745 331.852 422.22 333.326 422.22 334.8Z" fill="white"/>
<path opacity="0.7" d="M452.462 295.013C452.462 296.486 450.987 297.96 449.511 297.96C448.036 297.96 446.561 296.486 446.561 295.013C446.561 293.539 448.036 292.066 449.511 292.066C450.987 292.066 452.462 293.539 452.462 295.013Z" fill="white"/>
<path opacity="0.7" d="M428.121 492.478C428.121 493.952 426.646 495.425 425.17 495.425C423.695 495.425 422.22 493.952 422.22 492.478C422.22 491.004 423.695 489.531 425.17 489.531C426.646 489.531 428.121 491.004 428.121 492.478Z" fill="white"/>
<path opacity="0.7" d="M571.219 276.593C571.219 278.066 569.744 279.54 568.269 279.54C566.794 279.54 565.318 278.066 565.318 276.593C565.318 275.119 566.794 273.645 568.269 273.645C569.744 273.645 571.219 275.119 571.219 276.593Z" fill="white"/>
<path opacity="0.7" d="M507.045 474.794C507.045 476.267 506.307 477.004 504.832 477.004C503.356 477.004 502.619 476.267 502.619 474.794C502.619 473.32 503.356 472.583 504.832 472.583C506.307 472.583 507.045 473.32 507.045 474.794Z" fill="white"/>
<path opacity="0.7" d="M721.699 390.061C721.699 392.271 719.486 394.482 717.274 394.482C715.061 394.482 712.848 392.271 712.848 390.061C712.848 387.85 715.061 385.64 717.274 385.64C720.224 385.64 721.699 387.113 721.699 390.061Z" fill="white"/>
<path opacity="0.7" d="M511.474 239.752C511.474 241.226 510.737 241.963 509.261 241.963C507.786 241.963 507.048 241.226 507.048 239.752C507.048 238.279 507.786 237.542 509.261 237.542C509.999 237.542 511.474 238.279 511.474 239.752Z" fill="white"/>
<path opacity="0.7" d="M470.906 1.76268C470.906 2.49949 470.168 3.23629 469.43 3.23629C468.693 3.23629 467.955 2.49949 467.955 1.76268C467.955 1.02587 468.693 0.289054 469.43 0.289054C470.168 -0.447758 470.906 0.289059 470.906 1.76268Z" fill="white"/>
<path opacity="0.7" d="M472.375 154.282C472.375 155.019 471.637 155.756 470.9 155.756C470.162 155.756 469.424 155.019 469.424 154.282C469.424 153.545 470.162 152.809 470.9 152.809C471.637 152.809 472.375 153.545 472.375 154.282Z" fill="white"/>
<path opacity="0.7" d="M660.475 95.3378C660.475 96.0746 659.738 96.8114 659 96.8114C658.262 96.8114 657.525 96.0746 657.525 95.3378C657.525 94.601 658.262 93.8641 659 93.8641C659.738 93.8641 660.475 94.601 660.475 95.3378Z" fill="white"/>
<path opacity="0.7" d="M651.628 192.596C651.628 193.333 650.89 194.07 650.153 194.07C649.415 194.07 648.677 193.333 648.677 192.596C648.677 191.859 649.415 191.123 650.153 191.123C650.89 191.123 651.628 191.859 651.628 192.596Z" fill="white"/>
<path opacity="0.7" d="M574.91 59.9698C574.91 60.7066 574.173 61.4434 573.435 61.4434C572.697 61.4434 571.96 60.7066 571.96 59.9698C571.96 59.233 572.697 58.4962 573.435 58.4962C574.173 57.7594 574.91 58.4962 574.91 59.9698Z" fill="white"/>
<path opacity="0.7" d="M723.917 185.229C724.732 185.229 725.393 184.569 725.393 183.755C725.393 182.941 724.732 182.281 723.917 182.281C723.103 182.281 722.442 182.941 722.442 183.755C722.442 184.569 723.103 185.229 723.917 185.229Z" fill="white"/>
<path opacity="0.7" d="M535.817 23.8662C535.817 24.603 535.079 25.3398 534.342 25.3398C533.604 25.3398 532.866 24.603 532.866 23.8662C532.866 23.1294 533.604 22.3926 534.342 22.3926C535.079 22.3926 535.817 23.1294 535.817 23.8662Z" fill="white"/>
<path opacity="0.7" d="M42.3319 6.91975C42.3319 9.13018 40.119 11.3406 37.906 11.3406C35.6931 11.3406 33.4802 9.13018 33.4802 6.91975C33.4802 4.70932 35.6931 2.4989 37.906 2.4989C40.8566 2.4989 42.3319 4.70932 42.3319 6.91975Z" fill="white"/>
<path opacity="0.7" d="M621.384 34.1826C621.384 35.6562 619.909 37.1299 618.434 37.1299C616.959 37.1299 615.483 35.6562 615.483 34.1826C615.483 32.709 616.959 31.2354 618.434 31.2354C619.909 31.2354 621.384 32.709 621.384 34.1826Z" fill="white"/>
<path opacity="0.7" d="M596.303 189.648C596.303 191.122 594.827 192.595 593.352 192.595C591.877 192.595 590.401 191.122 590.401 189.648C590.401 188.175 591.877 186.701 593.352 186.701C595.565 186.701 596.303 188.175 596.303 189.648Z" fill="white"/>
<path opacity="0.7" d="M546.879 150.597C546.879 152.071 545.403 153.545 543.928 153.545C542.453 153.545 540.977 152.071 540.977 150.597C540.977 149.124 542.453 147.65 543.928 147.65C546.141 147.65 546.879 148.387 546.879 150.597Z" fill="white"/>
<path opacity="0.7" d="M428.121 100.495C428.121 101.969 426.646 103.442 425.17 103.442C423.695 103.442 422.22 101.969 422.22 100.495C422.22 99.0214 423.695 97.5478 425.17 97.5478C426.646 97.5478 428.121 98.2846 428.121 100.495Z" fill="white"/>
<path opacity="0.7" d="M507.045 82.0741C507.045 83.5477 506.307 84.2845 504.832 84.2845C503.356 84.2845 502.619 83.5477 502.619 82.0741C502.619 80.6005 503.356 79.8636 504.832 79.8636C506.307 79.8636 507.045 81.3373 507.045 82.0741Z" fill="white"/>
<path opacity="0.7" d="M469.427 187.439C469.427 188.912 468.689 189.649 467.214 189.649C465.739 189.649 465.001 188.912 465.001 187.439C465.001 185.965 465.739 185.228 467.214 185.228C467.952 185.228 469.427 185.965 469.427 187.439Z" fill="white"/>
<path opacity="0.7" d="M601.468 137.335C601.468 138.809 600.73 139.545 599.255 139.545C597.779 139.545 597.042 138.809 597.042 137.335C597.042 135.861 597.779 135.124 599.255 135.124C599.992 135.124 601.468 135.861 601.468 137.335Z" fill="white"/>
<path opacity="0.7" d="M419.265 177.859C419.265 180.07 417.052 182.28 414.84 182.28C412.627 182.28 410.414 180.07 410.414 177.859C410.414 175.649 412.627 173.439 414.84 173.439C417.79 173.439 419.265 175.649 419.265 177.859Z" fill="white"/>
<path opacity="0.7" d="M636.134 429.848C636.134 430.585 635.397 431.322 634.659 431.322C633.921 431.322 633.184 430.585 633.184 429.848C633.184 429.112 633.921 428.375 634.659 428.375C635.397 428.375 636.134 429.112 636.134 429.848Z" fill="white"/>
<path opacity="0.7" d="M477.539 507.951C477.539 509.424 476.802 510.161 475.326 510.161C473.851 510.161 473.113 509.424 473.113 507.951C473.113 506.477 473.851 505.74 475.326 505.74C476.802 505.74 477.539 506.477 477.539 507.951Z" fill="white"/>
<path opacity="0.7" d="M701.046 66.6013C701.046 67.3381 700.308 68.0749 699.57 68.0749C698.833 68.0749 698.095 67.3381 698.095 66.6013C698.095 65.8645 698.833 65.1277 699.57 65.1277C700.308 65.1277 701.046 65.8645 701.046 66.6013Z" fill="white"/>
<path opacity="0.7" d="M683.347 248.594C683.347 250.804 681.134 253.014 678.921 253.014C676.708 253.014 674.495 250.804 674.495 248.594C674.495 246.383 676.708 244.173 678.921 244.173C681.134 244.173 683.347 246.383 683.347 248.594Z" fill="white"/>
<path opacity="0.7" d="M724.655 180.807C724.655 182.28 723.179 183.754 721.704 183.754C720.229 183.754 718.753 182.28 718.753 180.807C718.753 179.333 720.229 177.86 721.704 177.86C723.917 177.86 724.655 179.333 724.655 180.807Z" fill="white"/>
<path opacity="0.7" d="M775.549 66.6014C775.549 68.075 774.074 69.5486 772.599 69.5486C771.123 69.5486 769.648 68.075 769.648 66.6014C769.648 65.1278 771.123 63.6542 772.599 63.6542C774.811 63.6542 775.549 65.1278 775.549 66.6014Z" fill="white"/>
<path opacity="0.7" d="M751.207 264.803C751.207 266.276 749.732 267.75 748.257 267.75C746.781 267.75 745.306 266.276 745.306 264.803C745.306 263.329 746.781 261.856 748.257 261.856C749.732 261.856 751.207 263.329 751.207 264.803Z" fill="white"/>
<path opacity="0.7" d="M801.368 279.539C801.368 281.013 800.63 281.75 799.155 281.75C797.679 281.75 796.942 281.013 796.942 279.539C796.942 278.066 797.679 277.329 799.155 277.329C799.892 277.329 801.368 278.803 801.368 279.539Z" fill="white"/>
<path opacity="0.7" d="M1016.02 194.07C1016.02 193.333 1016.76 192.596 1017.5 192.596C1018.24 192.596 1018.97 193.333 1018.97 194.07C1018.97 194.807 1018.24 195.543 1017.5 195.543C1016.76 196.28 1016.02 195.543 1016.02 194.07Z" fill="white"/>
<path opacity="0.7" d="M971.765 34.1824C971.765 33.4456 972.502 32.7087 973.24 32.7087C973.978 32.7087 974.715 33.4456 974.715 34.1824C974.715 34.9192 973.978 35.656 973.24 35.656C972.502 35.656 971.765 35.656 971.765 34.1824Z" fill="white"/>
<path opacity="0.7" d="M861.118 227.963C861.118 227.227 861.856 226.49 862.594 226.49C863.331 226.49 864.069 227.227 864.069 227.963C864.069 228.7 863.331 229.437 862.594 229.437C861.856 229.437 861.118 228.7 861.118 227.963Z" fill="white"/>
<path opacity="0.7" d="M879.558 45.9711C879.558 43.7607 881.771 41.5503 883.984 41.5503C886.197 41.5503 888.41 43.7607 888.41 45.9711C888.41 48.1816 886.197 50.392 883.984 50.392C881.771 50.392 879.558 48.1816 879.558 45.9711Z" fill="white"/>
<path opacity="0.7" d="M1010.12 96.074C1010.12 94.6004 1011.6 93.1268 1013.07 93.1268C1014.55 93.1268 1016.02 94.6004 1016.02 96.074C1016.02 97.5476 1014.55 99.0212 1013.07 99.0212C1011.6 99.0212 1010.12 97.5476 1010.12 96.074Z" fill="white"/>
<path opacity="0.7" d="M980.617 330.379C980.617 329.642 981.355 328.905 982.092 328.905C982.83 328.905 983.568 329.642 983.568 330.379C983.568 331.116 982.83 331.853 982.092 331.853C981.355 331.853 980.617 331.116 980.617 330.379Z" fill="white"/>
<path opacity="0.7" d="M1010.12 488.056C1010.12 486.583 1011.6 485.109 1013.07 485.109C1014.55 485.109 1016.02 486.583 1016.02 488.056C1016.02 489.53 1014.55 491.004 1013.07 491.004C1011.6 491.004 1010.12 490.267 1010.12 488.056Z" fill="white"/>
<path opacity="0.7" d="M327.802 74.7067C327.802 73.9699 328.54 73.233 329.277 73.233C330.015 73.233 330.752 73.9699 330.752 74.7067C330.752 75.4435 330.015 76.1803 329.277 76.1803C328.54 76.1803 327.802 75.4435 327.802 74.7067Z" fill="white"/>
<path opacity="0.7" d="M883.247 127.757C883.247 126.283 884.723 124.81 886.198 124.81C887.673 124.81 889.149 126.283 889.149 127.757C889.149 129.23 887.673 130.704 886.198 130.704C884.723 130.704 883.247 129.23 883.247 127.757Z" fill="white"/>
<path opacity="0.7" d="M811.694 29.7609C811.694 28.2873 813.17 26.8137 814.645 26.8137C816.12 26.8137 817.595 28.2873 817.595 29.7609C817.595 31.2345 816.12 32.7081 814.645 32.7081C813.17 32.7081 811.694 31.2345 811.694 29.7609Z" fill="white"/>
<path opacity="0.7" d="M811.694 422.481C811.694 421.007 813.17 419.533 814.645 419.533C816.12 419.533 817.595 421.007 817.595 422.481C817.595 423.954 816.12 425.428 814.645 425.428C812.432 425.428 811.694 423.954 811.694 422.481Z" fill="white"/>
<path opacity="0.7" d="M820.548 345.116C820.548 342.906 822.761 340.695 824.974 340.695C827.187 340.695 829.399 342.906 829.399 345.116C829.399 347.326 827.187 349.537 824.974 349.537C822.023 348.8 820.548 347.326 820.548 345.116Z" fill="white"/>
<path opacity="0.7" d="M1370.09 333.327C1370.09 334.8 1369.35 335.537 1367.88 335.537C1366.4 335.537 1365.66 334.8 1365.66 333.327C1365.66 331.853 1366.4 331.116 1367.88 331.116C1368.61 331.116 1370.09 331.853 1370.09 333.327Z" fill="white"/>
<path opacity="0.7" d="M1322.88 328.169C1322.88 328.906 1322.15 329.642 1321.41 329.642C1320.67 329.642 1319.93 328.906 1319.93 328.169C1319.93 327.432 1320.67 326.695 1321.41 326.695C1322.15 326.695 1322.88 327.432 1322.88 328.169Z" fill="white"/>
<path opacity="0.7" d="M1460.82 333.327C1460.82 334.064 1460.08 334.801 1459.34 334.801C1458.61 334.801 1457.87 334.064 1457.87 333.327C1457.87 332.59 1458.61 331.853 1459.34 331.853C1460.08 331.117 1460.82 331.853 1460.82 333.327Z" fill="white"/>
<path opacity="0.7" d="M1367.14 488.056C1367.14 488.793 1366.41 489.53 1365.67 489.53C1364.93 489.53 1364.19 488.793 1364.19 488.056C1364.19 487.319 1364.93 486.583 1365.67 486.583C1366.41 486.583 1367.14 487.319 1367.14 488.056Z" fill="white"/>
<path opacity="0.7" d="M206.824 107.863C206.824 108.6 206.086 109.336 205.349 109.336C204.611 109.336 203.873 108.6 203.873 107.863C203.873 107.126 204.611 106.389 205.349 106.389C206.086 105.652 206.824 106.389 206.824 107.863Z" fill="white"/>
<path opacity="0.7" d="M1642.28 390.061C1642.28 390.798 1641.55 391.535 1640.81 391.535C1640.07 391.535 1639.33 390.798 1639.33 390.061C1639.33 389.325 1640.07 388.588 1640.81 388.588C1641.55 387.851 1642.28 388.588 1642.28 390.061Z" fill="white"/>
<path opacity="0.7" d="M1477.05 295.012C1477.05 295.749 1476.31 296.486 1475.57 296.486C1474.84 296.486 1474.1 295.749 1474.1 295.012C1474.1 294.275 1474.84 293.538 1475.57 293.538C1476.31 293.538 1477.05 294.275 1477.05 295.012Z" fill="white"/>
<path opacity="0.7" d="M1311.82 255.961C1311.82 256.698 1311.08 257.435 1310.34 257.435C1309.61 257.435 1308.87 256.698 1308.87 255.961C1308.87 255.224 1309.61 254.488 1310.34 254.488C1311.08 254.488 1311.82 255.224 1311.82 255.961Z" fill="white"/>
<path opacity="0.7" d="M1284.52 354.694C1284.52 356.168 1283.79 356.904 1282.31 356.904C1280.84 356.904 1280.1 356.168 1280.1 354.694C1280.1 353.22 1280.84 352.484 1282.31 352.484C1283.05 352.484 1284.52 353.22 1284.52 354.694Z" fill="white"/>
<path opacity="0.7" d="M9.87241 71.7594C9.87241 73.9698 7.65949 76.1802 5.44656 76.1802C3.23363 76.1802 1.02069 73.9698 1.02069 71.7594C1.02069 69.5489 3.23363 67.3385 5.44656 67.3385C8.39713 68.0753 9.87241 69.5489 9.87241 71.7594Z" fill="white"/>
<path opacity="0.7" d="M1159.87 295.013C1159.87 296.486 1158.39 297.96 1156.91 297.96C1155.44 297.96 1153.96 296.486 1153.96 295.013C1153.96 293.539 1155.44 292.066 1156.91 292.066C1158.39 292.066 1159.87 293.539 1159.87 295.013Z" fill="white"/>
<path opacity="0.7" d="M1278.62 276.593C1278.62 278.066 1277.15 279.54 1275.67 279.54C1274.2 279.54 1272.72 278.066 1272.72 276.593C1272.72 275.119 1274.2 273.645 1275.67 273.645C1277.15 273.645 1278.62 275.119 1278.62 276.593Z" fill="white"/>
<path opacity="0.7" d="M1177.57 1.76268C1177.57 2.49949 1176.83 3.23629 1176.09 3.23629C1175.35 3.23629 1174.62 2.49949 1174.62 1.76268C1174.62 1.02587 1175.35 0.289054 1176.09 0.289054C1176.83 -0.447758 1177.57 0.289059 1177.57 1.76268Z" fill="white"/>
<path opacity="0.7" d="M1484.42 68.8113C1484.42 69.5481 1483.69 70.2849 1482.95 70.2849C1482.21 70.2849 1481.47 69.5481 1481.47 68.8113C1481.47 68.0744 1482.21 67.3376 1482.95 67.3376C1483.69 66.6008 1484.42 67.3376 1484.42 68.8113Z" fill="white"/>
<path opacity="0.7" d="M1367.14 95.3378C1367.14 96.0746 1366.41 96.8114 1365.67 96.8114C1364.93 96.8114 1364.19 96.0746 1364.19 95.3378C1364.19 94.601 1364.93 93.8641 1365.67 93.8641C1366.41 93.8641 1367.14 94.601 1367.14 95.3378Z" fill="white"/>
<path opacity="0.7" d="M1358.29 192.596C1358.29 193.333 1357.55 194.07 1356.82 194.07C1356.08 194.07 1355.34 193.333 1355.34 192.596C1355.34 191.859 1356.08 191.123 1356.82 191.123C1357.55 191.123 1358.29 191.859 1358.29 192.596Z" fill="white"/>
<path opacity="0.7" d="M1281.57 59.9698C1281.57 60.7066 1280.84 61.4434 1280.1 61.4434C1279.36 61.4434 1278.62 60.7066 1278.62 59.9698C1278.62 59.233 1279.36 58.4962 1280.1 58.4962C1280.84 57.7594 1281.57 58.4962 1281.57 59.9698Z" fill="white"/>
<path opacity="0.7" d="M1432.05 183.755C1432.05 184.492 1431.32 185.229 1430.58 185.229C1429.84 185.229 1429.1 184.492 1429.1 183.755C1429.1 183.018 1429.84 182.281 1430.58 182.281C1431.32 182.281 1432.05 183.018 1432.05 183.755Z" fill="white"/>
<path opacity="0.7" d="M1242.48 23.8662C1242.48 24.603 1241.74 25.3398 1241 25.3398C1240.27 25.3398 1239.53 24.603 1239.53 23.8662C1239.53 23.1294 1240.27 22.3926 1241 22.3926C1241.74 22.3926 1242.48 23.1294 1242.48 23.8662Z" fill="white"/>
<path opacity="0.7" d="M1328.78 34.1826C1328.78 35.6562 1327.31 37.1299 1325.83 37.1299C1324.36 37.1299 1322.88 35.6562 1322.88 34.1826C1322.88 32.709 1324.36 31.2354 1325.83 31.2354C1327.31 31.2354 1328.78 32.709 1328.78 34.1826Z" fill="white"/>
<path opacity="0.7" d="M1303.71 189.648C1303.71 191.122 1302.23 192.595 1300.76 192.595C1299.28 192.595 1297.8 191.122 1297.8 189.648C1297.8 188.175 1299.28 186.701 1300.76 186.701C1302.23 186.701 1303.71 188.175 1303.71 189.648Z" fill="white"/>
<path opacity="0.7" d="M1254.28 150.597C1254.28 152.071 1252.81 153.545 1251.33 153.545C1249.86 153.545 1248.38 152.071 1248.38 150.597C1248.38 149.124 1249.86 147.65 1251.33 147.65C1252.81 147.65 1254.28 148.387 1254.28 150.597Z" fill="white"/>
<path opacity="0.7" d="M1135.52 100.495C1135.52 101.969 1134.04 103.442 1132.57 103.442C1131.09 103.442 1129.62 101.969 1129.62 100.495C1129.62 99.0214 1131.09 97.5478 1132.57 97.5478C1134.04 97.5478 1135.52 98.2846 1135.52 100.495Z" fill="white"/>
<path opacity="0.7" d="M1213.71 82.0741C1213.71 83.5477 1212.98 84.2845 1211.5 84.2845C1210.03 84.2845 1209.29 83.5477 1209.29 82.0741C1209.29 80.6005 1210.03 79.8636 1211.5 79.8636C1212.98 79.8636 1213.71 81.3373 1213.71 82.0741Z" fill="white"/>
<path opacity="0.7" d="M1346.48 372.377C1346.48 373.113 1345.75 373.85 1345.01 373.85C1344.27 373.85 1343.53 373.113 1343.53 372.377C1343.53 371.64 1344.27 370.903 1345.01 370.903C1345.75 370.166 1346.48 370.903 1346.48 372.377Z" fill="white"/>
<path opacity="0.7" d="M909.8 426.165C909.8 427.638 908.325 429.112 906.85 429.112C905.374 429.112 903.899 427.638 903.899 426.165C903.899 424.691 905.374 423.218 906.85 423.218C908.325 423.218 909.8 423.954 909.8 426.165Z" fill="white"/>
<path opacity="0.7" d="M1484.42 492.477C1484.42 493.214 1483.69 493.951 1482.95 493.951C1482.21 493.951 1481.47 493.214 1481.47 492.477C1481.47 491.74 1482.21 491.004 1482.95 491.004C1483.69 491.004 1484.42 491.74 1484.42 492.477Z" fill="white"/>
<path opacity="0.7" d="M1184.94 507.951C1184.94 509.424 1184.2 510.161 1182.73 510.161C1181.25 510.161 1180.52 509.424 1180.52 507.951C1180.52 506.477 1181.25 505.74 1182.73 505.74C1184.2 505.74 1184.94 506.477 1184.94 507.951Z" fill="white"/>
<path opacity="0.7" d="M1623.84 152.809C1623.84 153.545 1623.1 154.282 1622.37 154.282C1621.63 154.282 1620.89 153.545 1620.89 152.809C1620.89 152.072 1621.63 151.335 1622.37 151.335C1623.1 150.598 1623.84 151.335 1623.84 152.809Z" fill="white"/>
<path opacity="0.7" d="M1674 451.953C1674 452.69 1673.26 453.427 1672.52 453.427C1671.79 453.427 1671.05 452.69 1671.05 451.953C1671.05 451.216 1671.79 450.479 1672.52 450.479C1673.26 450.479 1674 451.216 1674 451.953Z" fill="white"/>
<path opacity="0.7" d="M1521.31 334.8C1521.31 336.273 1519.83 337.747 1518.36 337.747C1516.88 337.747 1515.41 336.273 1515.41 334.8C1515.41 333.326 1516.88 331.852 1518.36 331.852C1519.83 331.852 1521.31 333.326 1521.31 334.8Z" fill="white"/>
<path opacity="0.7" d="M1551.55 295.013C1551.55 296.486 1550.08 297.96 1548.6 297.96C1547.13 297.96 1545.65 296.486 1545.65 295.013C1545.65 293.539 1547.13 292.066 1548.6 292.066C1550.81 292.066 1551.55 293.539 1551.55 295.013Z" fill="white"/>
<path opacity="0.7" d="M1527.21 492.478C1527.21 493.952 1525.74 495.425 1524.26 495.425C1522.78 495.425 1521.31 493.952 1521.31 492.478C1521.31 491.004 1522.78 489.531 1524.26 489.531C1525.74 489.531 1527.21 491.004 1527.21 492.478Z" fill="white"/>
<path opacity="0.7" d="M1670.31 276.593C1670.31 278.066 1668.83 279.54 1667.36 279.54C1665.88 279.54 1664.41 278.066 1664.41 276.593C1664.41 275.119 1665.88 273.645 1667.36 273.645C1669.57 273.645 1670.31 275.119 1670.31 276.593Z" fill="white"/>
<path opacity="0.7" d="M1606.14 474.794C1606.14 476.267 1605.4 477.004 1603.92 477.004C1602.45 477.004 1601.71 476.267 1601.71 474.794C1601.71 473.32 1602.45 472.583 1603.92 472.583C1605.4 472.583 1606.14 473.32 1606.14 474.794Z" fill="white"/>
<path opacity="0.7" d="M1610.56 239.752C1610.56 241.226 1609.83 241.963 1608.35 241.963C1606.88 241.963 1606.14 241.226 1606.14 239.752C1606.14 238.279 1606.88 237.542 1608.35 237.542C1609.83 237.542 1610.56 238.279 1610.56 239.752Z" fill="white"/>
<path opacity="0.7" d="M1642.28 781.975C1642.28 782.711 1641.55 783.448 1640.81 783.448C1640.07 783.448 1639.33 782.711 1639.33 781.975C1639.33 781.238 1640.07 780.501 1640.81 780.501C1641.55 779.764 1642.28 780.501 1642.28 781.975Z" fill="white"/>
<path opacity="0.7" d="M1623.84 544.722C1623.84 545.458 1623.1 546.195 1622.37 546.195C1621.63 546.195 1620.89 545.458 1620.89 544.722C1620.89 543.985 1621.63 543.248 1622.37 543.248C1623.1 542.511 1623.84 543.248 1623.84 544.722Z" fill="white"/>
<path opacity="0.7" d="M1521.31 726.713C1521.31 728.186 1519.83 729.66 1518.36 729.66C1516.88 729.66 1515.41 728.186 1515.41 726.713C1515.41 725.239 1516.88 723.766 1518.36 723.766C1519.83 723.766 1521.31 725.239 1521.31 726.713Z" fill="white"/>
<path opacity="0.7" d="M1551.55 686.926C1551.55 688.4 1550.08 689.873 1548.6 689.873C1547.13 689.873 1545.65 688.4 1545.65 686.926C1545.65 685.452 1547.13 683.979 1548.6 683.979C1550.81 683.979 1551.55 685.452 1551.55 686.926Z" fill="white"/>
<path opacity="0.7" d="M1670.31 668.506C1670.31 669.979 1668.83 671.453 1667.36 671.453C1665.88 671.453 1664.41 669.979 1664.41 668.506C1664.41 667.032 1665.88 665.558 1667.36 665.558C1669.57 665.558 1670.31 667.032 1670.31 668.506Z" fill="white"/>
<path opacity="0.7" d="M1610.56 631.666C1610.56 633.139 1609.83 633.876 1608.35 633.876C1606.88 633.876 1606.14 633.139 1606.14 631.666C1606.14 630.192 1606.88 629.455 1608.35 629.455C1609.83 629.455 1610.56 630.192 1610.56 631.666Z" fill="white"/>
<path opacity="0.7" d="M1570 1.76268C1570 2.49949 1569.26 3.23629 1568.52 3.23629C1567.78 3.23629 1567.04 2.49949 1567.04 1.76268C1567.04 1.02587 1567.78 0.289054 1568.52 0.289054C1569.26 -0.447758 1570 0.289059 1570 1.76268Z" fill="white"/>
<path opacity="0.7" d="M1674 59.9698C1674 60.7066 1673.26 61.4434 1672.52 61.4434C1671.79 61.4434 1671.05 60.7066 1671.05 59.9698C1671.05 59.233 1671.79 58.4962 1672.52 58.4962C1673.26 57.7594 1674 58.4962 1674 59.9698Z" fill="white"/>
<path opacity="0.7" d="M1634.91 23.8662C1634.91 24.603 1634.17 25.3398 1633.43 25.3398C1632.69 25.3398 1631.96 24.603 1631.96 23.8662C1631.96 23.1294 1632.69 22.3926 1633.43 22.3926C1634.17 22.3926 1634.91 23.1294 1634.91 23.8662Z" fill="white"/>
<path opacity="0.7" d="M727.605 453.427C727.605 455.637 725.392 457.848 723.179 457.848C720.966 457.848 718.753 455.637 718.753 453.427C718.753 451.216 720.966 449.006 723.179 449.006C726.13 449.743 727.605 451.216 727.605 453.427Z" fill="white"/>
<g opacity="0.7">
<path opacity="0.7" d="M810.96 124.072L811.697 139.545L827.926 141.019L812.435 141.756L810.96 157.965L809.484 141.756L793.994 141.019L809.484 139.545L810.96 124.072Z" fill="white"/>
<path opacity="0.7" d="M817.597 133.651L812.434 140.282L817.597 147.65L810.959 141.756L803.582 148.387L809.483 141.019L803.582 133.651L810.959 139.546L817.597 133.651Z" fill="white"/>
</g>
<g opacity="0.7">
<path opacity="0.7" d="M643.514 92.3894L644.989 107.862L660.48 109.336L644.989 110.073L643.514 126.283L642.039 110.073L626.548 109.336L642.039 107.862L643.514 92.3894Z" fill="white"/>
<path opacity="0.7" d="M650.152 101.968L644.988 109.336L650.152 115.968L643.513 110.81L636.137 116.704L642.775 109.336L636.137 102.705L643.513 107.863L650.152 101.968Z" fill="white"/>
</g>
<g opacity="0.7">
<path opacity="0.7" d="M750.473 499.11L751.211 509.425L762.275 510.899H751.211L750.473 522.688L749.735 510.899H738.671L749.735 509.425L750.473 499.11Z" fill="white"/>
<path opacity="0.7" d="M754.901 505.74L751.213 510.161L754.901 515.319L750.475 510.898L745.312 515.319L749.738 510.161L745.312 505.74L750.475 509.424L754.901 505.74Z" fill="white"/>
</g>
<g opacity="0.7">
<path opacity="0.7" d="M382.387 71.0222L383.124 81.3376L394.189 82.8112H383.862L382.387 94.6001L381.649 82.8112H370.584L381.649 81.3376L382.387 71.0222Z" fill="white"/>
<path opacity="0.7" d="M387.552 77.6529L383.864 82.0737L387.552 87.2314L382.389 83.5474L377.225 87.2314L381.651 82.8105L377.225 77.6529L382.389 81.3369L387.552 77.6529Z" fill="white"/>
</g>
<g opacity="0.7">
<path opacity="0.7" d="M1068.4 59.2325L1069.13 69.5478L1080.2 71.0214H1069.13L1068.4 82.8103L1067.66 71.0214H1056.59L1067.66 69.5478L1068.4 59.2325Z" fill="white"/>
<path opacity="0.7" d="M1073.56 65.8632L1069.14 70.284L1073.56 75.4417L1068.4 71.7576L1063.23 75.4417L1067.66 71.0208L1063.23 65.8632L1068.4 69.5472L1073.56 65.8632Z" fill="white"/>
</g>
<g opacity="0.7">
<path opacity="0.7" d="M1384.85 456.374L1386.32 471.11L1401.81 473.321H1386.32L1384.85 490.267L1383.37 473.321H1367.88L1383.37 471.11L1384.85 456.374Z" fill="white"/>
<path opacity="0.7" d="M1391.48 465.215L1386.32 472.583L1391.48 479.952L1384.85 474.057L1377.47 479.952L1384.11 472.583L1377.47 465.952L1384.85 471.11L1391.48 465.215Z" fill="white"/>
</g>
<g opacity="0.7">
<path opacity="0.7" d="M1491.81 71.0222L1492.54 81.3376L1503.61 82.8112H1492.54L1491.81 94.6001L1491.07 82.8112H1480L1491.07 81.3376L1491.81 71.0222Z" fill="white"/>
<path opacity="0.7" d="M1496.23 77.6529L1492.55 82.0737L1496.23 87.2314L1491.81 83.5474L1486.65 87.2314L1491.07 82.8105L1486.65 77.6529L1491.81 81.3369L1496.23 77.6529Z" fill="white"/>
</g>
<g opacity="0.7">
<path opacity="0.7" d="M1256.5 316.38L1257.23 327.432L1268.3 328.169L1257.23 328.906L1256.5 339.958L1255.76 328.906L1244.69 328.169L1255.76 327.432L1256.5 316.38Z" fill="white"/>
<path opacity="0.7" d="M1260.92 323.011L1257.24 328.169L1260.92 333.326L1256.5 328.906L1251.33 333.326L1255.76 328.169L1251.33 323.748L1256.5 327.432L1260.92 323.011Z" fill="white"/>
</g>
<g opacity="0.7">
<path opacity="0.7" d="M1100.11 384.904L1100.85 395.956L1111.92 396.693L1100.85 397.429L1100.11 408.482L1099.38 397.429L1088.31 396.693L1099.38 395.956L1100.11 384.904Z" fill="white"/>
<path opacity="0.7" d="M1104.54 391.534L1100.85 396.692L1104.54 401.85L1100.12 397.429L1094.95 401.85L1099.38 396.692L1094.95 392.271L1100.12 395.955L1104.54 391.534Z" fill="white"/>
</g>
<g opacity="0.7">
<path opacity="0.7" d="M1167.24 93.1268L1168.72 103.442L1179.04 104.916H1168.72L1167.24 116.705L1166.5 104.916H1155.44L1166.5 103.442L1167.24 93.1268Z" fill="white"/>
<path opacity="0.7" d="M1172.41 99.7574L1168.72 104.178L1172.41 109.336L1167.98 105.652L1162.08 109.336L1166.51 104.915L1162.08 99.7574L1167.24 103.441L1172.41 99.7574Z" fill="white"/>
</g>
<path opacity="0.7" d="M1415.63 906.995C1415.63 905.521 1416.37 904.784 1417.85 904.784C1419.32 904.784 1420.06 905.521 1420.06 906.995C1420.06 908.468 1419.32 909.205 1417.85 909.205C1417.11 909.205 1415.63 908.468 1415.63 906.995Z" fill="white"/>
<path opacity="0.7" d="M1325.03 902.095C1325.03 901.359 1325.77 900.622 1326.5 900.622C1327.24 900.622 1327.98 901.359 1327.98 902.095C1327.98 902.832 1327.24 903.569 1326.5 903.569C1325.77 904.306 1325.03 903.569 1325.03 902.095Z" fill="white"/>
<path opacity="0.7" d="M1510.38 793.239C1510.38 792.503 1511.11 791.766 1511.85 791.766C1512.59 791.766 1513.33 792.503 1513.33 793.239C1513.33 793.976 1512.59 794.713 1511.85 794.713C1511.11 794.713 1510.38 793.976 1510.38 793.239Z" fill="white"/>
<path opacity="0.7" d="M484.651 828.248C484.651 827.511 485.389 826.775 486.126 826.775C486.864 826.775 487.602 827.511 487.602 828.248C487.602 828.985 486.864 829.722 486.126 829.722C485.389 829.722 484.651 828.985 484.651 828.248Z" fill="white"/>
<path opacity="0.7" d="M1301.18 988.623C1301.18 987.886 1301.92 987.15 1302.66 987.15C1303.4 987.15 1304.14 987.886 1304.14 988.623C1304.14 989.36 1303.4 990.097 1302.66 990.097C1301.92 990.097 1301.18 989.36 1301.18 988.623Z" fill="white"/>
<path opacity="0.7" d="M1306.78 939.487C1306.78 938.75 1307.51 938.013 1308.25 938.013C1308.99 938.013 1309.73 938.75 1309.73 939.487C1309.73 940.223 1308.99 940.96 1308.25 940.96C1307.51 940.96 1306.78 940.223 1306.78 939.487Z" fill="white"/>
<path opacity="0.7" d="M1225.97 1192.71C1225.97 1191.23 1226.71 1190.5 1228.19 1190.5C1229.66 1190.5 1230.4 1191.23 1230.4 1192.71C1230.4 1194.18 1229.66 1194.92 1228.19 1194.92C1226.71 1194.92 1225.97 1193.45 1225.97 1192.71Z" fill="white"/>
<path opacity="0.7" d="M1236.46 845.774C1236.46 844.3 1237.93 842.827 1239.41 842.827C1240.88 842.827 1242.36 844.3 1242.36 845.774C1242.36 847.248 1240.88 848.721 1239.41 848.721C1237.2 848.721 1236.46 847.248 1236.46 845.774Z" fill="white"/>
<path opacity="0.7" d="M1347.06 1221.38C1347.06 1219.9 1348.53 1218.43 1350.01 1218.43C1351.49 1218.43 1352.96 1219.9 1352.96 1221.38C1352.96 1222.85 1351.49 1224.32 1350.01 1224.32C1348.53 1224.32 1347.06 1223.59 1347.06 1221.38Z" fill="white"/>
<path opacity="0.7" d="M1604.71 990.223C1604.71 988.749 1606.18 987.276 1607.66 987.276C1609.13 987.276 1610.61 988.749 1610.61 990.223C1610.61 991.697 1609.13 993.17 1607.66 993.17C1606.18 993.17 1604.71 991.697 1604.71 990.223Z" fill="white"/>
<path opacity="0.7" d="M1659.12 760.713C1659.12 759.239 1660.6 757.765 1662.08 757.765C1663.55 757.765 1665.03 759.239 1665.03 760.713C1665.03 762.186 1663.55 763.66 1662.08 763.66C1659.86 763.66 1659.12 762.186 1659.12 760.713Z" fill="white"/>
<path opacity="0.7" d="M1503.93 968.585C1503.93 967.111 1505.4 965.638 1506.88 965.638C1508.35 965.638 1509.83 967.111 1509.83 968.585C1509.83 970.059 1508.35 971.532 1506.88 971.532C1505.4 971.532 1503.93 970.059 1503.93 968.585Z" fill="white"/>
<path opacity="0.7" d="M1579.36 774.105C1579.36 772.631 1580.1 771.895 1581.58 771.895C1583.05 771.895 1583.79 772.631 1583.79 774.105C1583.79 775.578 1583.05 776.315 1581.58 776.315C1580.1 776.315 1579.36 775.578 1579.36 774.105Z" fill="white"/>
<path opacity="0.7" d="M1524.54 1066.31C1524.54 1064.84 1525.28 1064.1 1526.75 1064.1C1528.23 1064.1 1528.97 1064.84 1528.97 1066.31C1528.97 1067.79 1528.23 1068.52 1526.75 1068.52C1525.28 1068.52 1524.54 1067.05 1524.54 1066.31Z" fill="white"/>
<path opacity="0.7" d="M734.016 1082.17C734.016 1081.43 734.754 1080.69 735.492 1080.69C736.229 1080.69 736.967 1081.43 736.967 1082.17C736.967 1082.9 736.229 1083.64 735.492 1083.64C734.754 1083.64 734.016 1083.64 734.016 1082.17Z" fill="white"/>
<path opacity="0.7" d="M1405.83 1144.76C1405.83 1144.02 1406.57 1143.29 1407.31 1143.29C1408.04 1143.29 1408.78 1144.02 1408.78 1144.76C1408.78 1145.5 1408.04 1146.23 1407.31 1146.23C1406.57 1146.23 1405.83 1145.5 1405.83 1144.76Z" fill="white"/>
<path opacity="0.7" d="M1345.75 1052.99C1345.75 1052.26 1346.49 1051.52 1347.22 1051.52C1347.96 1051.52 1348.7 1052.26 1348.7 1052.99C1348.7 1053.73 1347.96 1054.47 1347.22 1054.47C1346.49 1054.47 1345.75 1053.73 1345.75 1052.99Z" fill="white"/>
<path opacity="0.7" d="M1481.9 731.944C1481.9 731.208 1482.64 730.471 1483.38 730.471C1484.11 730.471 1484.85 731.208 1484.85 731.944C1484.85 732.681 1484.11 733.418 1483.38 733.418C1482.64 733.418 1481.9 732.681 1481.9 731.944Z" fill="white"/>
<path opacity="0.7" d="M1440.86 1207.96C1440.86 1206.49 1442.34 1205.01 1443.81 1205.01C1445.29 1205.01 1446.76 1206.49 1446.76 1207.96C1446.76 1209.43 1445.29 1210.91 1443.81 1210.91C1442.34 1210.91 1440.86 1209.43 1440.86 1207.96Z" fill="white"/>
<path opacity="0.7" d="M812.54 1105.64C812.54 1104.17 814.016 1102.7 815.491 1102.7C816.966 1102.7 818.441 1104.17 818.441 1105.64C818.441 1107.12 816.966 1108.59 815.491 1108.59C813.278 1108.59 812.54 1107.85 812.54 1105.64Z" fill="white"/>
<path opacity="0.7" d="M1654.67 802.493C1654.67 801.02 1655.4 800.283 1656.88 800.283C1658.35 800.283 1659.09 801.02 1659.09 802.493C1659.09 803.967 1658.35 804.704 1656.88 804.704C1655.4 804.704 1654.67 803.967 1654.67 802.493Z" fill="white"/>
<path opacity="0.7" d="M1313.5 786.528C1313.5 784.317 1315.72 782.107 1317.93 782.107C1320.14 782.107 1322.36 784.317 1322.36 786.528C1322.36 788.738 1320.14 790.949 1317.93 790.949C1315.72 790.212 1313.5 788.738 1313.5 786.528Z" fill="white"/>
<path opacity="0.7" d="M1441.29 869.225C1441.29 868.488 1442.03 867.751 1442.76 867.751C1443.5 867.751 1444.24 868.488 1444.24 869.225C1444.24 869.962 1443.5 870.699 1442.76 870.699C1442.03 871.435 1441.29 870.699 1441.29 869.225Z" fill="white"/>
<path opacity="0.7" d="M1357.28 741.495C1357.28 740.758 1358.02 740.021 1358.76 740.021C1359.5 740.021 1360.23 740.758 1360.23 741.495C1360.23 742.232 1359.5 742.969 1358.76 742.969C1358.02 742.969 1357.28 742.232 1357.28 741.495Z" fill="white"/>
<path opacity="0.7" d="M636.786 870.35C636.786 869.613 637.524 868.876 638.261 868.876C638.999 868.876 639.736 869.613 639.736 870.35C639.736 871.086 638.999 871.823 638.261 871.823C637.524 871.823 636.786 871.086 636.786 870.35Z" fill="white"/>
<path opacity="0.7" d="M601.153 708.322C601.153 707.585 601.89 706.848 602.628 706.848C603.366 706.848 604.103 707.585 604.103 708.322C604.103 709.058 603.366 709.795 602.628 709.795C601.89 709.795 601.153 709.058 601.153 708.322Z" fill="white"/>
<path opacity="0.7" d="M823.09 729.815C823.09 729.079 823.828 728.342 824.565 728.342C825.303 728.342 826.041 729.079 826.041 729.815C826.041 730.552 825.303 731.289 824.565 731.289C823.828 731.289 823.09 730.552 823.09 729.815Z" fill="white"/>
<path opacity="0.7" d="M509.544 777.194C509.544 776.458 510.281 775.721 511.019 775.721C511.756 775.721 512.494 776.458 512.494 777.194C512.494 777.931 511.756 778.668 511.019 778.668C510.281 779.405 509.544 778.668 509.544 777.194Z" fill="white"/>
<path opacity="0.7" d="M636.175 771.522C636.175 770.048 637.65 768.575 639.126 768.575C640.601 768.575 642.076 770.048 642.076 771.522C642.076 772.995 640.601 774.469 639.126 774.469C637.65 774.469 636.175 772.995 636.175 771.522Z" fill="white"/>
<path opacity="0.7" d="M678.218 924.301C678.218 922.828 679.694 921.354 681.169 921.354C682.644 921.354 684.12 922.828 684.12 924.301C684.12 925.775 682.644 927.249 681.169 927.249C679.694 927.249 678.218 925.775 678.218 924.301Z" fill="white"/>
<path opacity="0.7" d="M641.058 694.228C641.058 693.491 641.796 692.754 642.533 692.754C643.271 692.754 644.009 693.491 644.009 694.228C644.009 694.964 643.271 695.701 642.533 695.701C641.796 695.701 641.058 694.964 641.058 694.228Z" fill="white"/>
<path opacity="0.7" d="M580.121 1100.48C580.121 1099.74 580.859 1099 581.596 1099C582.334 1099 583.072 1099.74 583.072 1100.48C583.072 1101.21 582.334 1101.95 581.596 1101.95C580.859 1101.95 580.121 1101.21 580.121 1100.48Z" fill="white"/>
<path opacity="0.7" d="M594.17 1003.83C594.17 1003.09 594.908 1002.36 595.646 1002.36C596.383 1002.36 597.121 1003.09 597.121 1003.83C597.121 1004.57 596.383 1005.31 595.646 1005.31C594.908 1005.31 594.17 1004.57 594.17 1003.83Z" fill="white"/>
<path opacity="0.7" d="M663.661 1140.38C663.661 1139.64 664.399 1138.9 665.136 1138.9C665.874 1138.9 666.612 1139.64 666.612 1140.38C666.612 1141.11 665.874 1141.85 665.136 1141.85C664.399 1142.59 663.661 1141.85 663.661 1140.38Z" fill="white"/>
<path opacity="0.7" d="M615.143 1163.68C615.143 1162.2 616.619 1160.73 618.094 1160.73C619.569 1160.73 621.044 1162.2 621.044 1163.68C621.044 1165.15 619.569 1166.62 618.094 1166.62C616.619 1166.62 615.143 1165.15 615.143 1163.68Z" fill="white"/>
<path opacity="0.7" d="M750.773 948.853C750.773 947.38 752.248 945.906 753.723 945.906C755.198 945.906 756.674 947.38 756.674 948.853C756.674 950.327 755.198 951.8 753.723 951.8C752.248 951.8 750.773 950.327 750.773 948.853Z" fill="white"/>
<path opacity="0.7" d="M795.232 836.051C795.232 835.314 795.969 834.577 796.707 834.577C797.445 834.577 798.182 835.314 798.182 836.051C798.182 836.788 797.445 837.524 796.707 837.524C795.969 837.524 795.232 836.788 795.232 836.051Z" fill="white"/>
<path opacity="0.7" d="M1609.87 742.536C1609.87 741.063 1610.6 740.326 1612.08 740.326C1613.55 740.326 1614.29 741.063 1614.29 742.536C1614.29 744.01 1613.55 744.747 1612.08 744.747C1610.6 744.747 1609.87 744.01 1609.87 742.536Z" fill="white"/>
<path opacity="0.7" d="M1020.16 884.428C1020.16 882.218 1022.37 880.007 1024.59 880.007C1026.8 880.007 1029.01 882.218 1029.01 884.428C1029.01 886.639 1026.8 888.849 1024.59 888.849C1022.37 888.112 1020.16 886.639 1020.16 884.428Z" fill="white"/>
<path opacity="0.7" d="M1071.37 893.657C1071.37 892.92 1072.11 892.183 1072.85 892.183C1073.58 892.183 1074.32 892.92 1074.32 893.657C1074.32 894.394 1073.58 895.13 1072.85 895.13C1072.11 895.13 1071.37 894.394 1071.37 893.657Z" fill="white"/>
<path opacity="0.7" d="M1152.57 1073.62C1152.57 1072.89 1153.31 1072.15 1154.05 1072.15C1154.78 1072.15 1155.52 1072.89 1155.52 1073.62C1155.52 1074.36 1154.78 1075.1 1154.05 1075.1C1153.31 1075.83 1152.57 1075.1 1152.57 1073.62Z" fill="white"/>
<path opacity="0.7" d="M1035 731.589C1035 730.853 1035.74 730.116 1036.48 730.116C1037.22 730.116 1037.95 730.853 1037.95 731.589C1037.95 732.326 1037.22 733.063 1036.48 733.063C1035.74 733.063 1035 732.326 1035 731.589Z" fill="white"/>
<path opacity="0.7" d="M1118.51 772.223C1118.51 771.486 1119.25 770.749 1119.99 770.749C1120.73 770.749 1121.46 771.486 1121.46 772.223C1121.46 772.96 1120.73 773.697 1119.99 773.697C1119.25 773.697 1118.51 772.96 1118.51 772.223Z" fill="white"/>
<path opacity="0.7" d="M926.552 701.423C926.552 700.686 927.29 699.95 928.028 699.95C928.765 699.95 929.503 700.686 929.503 701.423C929.503 702.16 928.765 702.897 928.028 702.897C927.29 702.897 926.552 702.16 926.552 701.423Z" fill="white"/>
<path opacity="0.7" d="M1156.39 809.673C1156.39 808.937 1157.13 808.2 1157.86 808.2C1158.6 808.2 1159.34 808.937 1159.34 809.673C1159.34 810.41 1158.6 811.147 1157.86 811.147C1157.13 811.884 1156.39 811.147 1156.39 809.673Z" fill="white"/>
<path opacity="0.7" d="M914.912 918.47C914.912 917.734 915.649 916.997 916.387 916.997C917.125 916.997 917.862 917.734 917.862 918.47C917.862 919.207 917.125 919.944 916.387 919.944C915.649 919.944 914.912 919.207 914.912 918.47Z" fill="white"/>
<path opacity="0.7" d="M1078.55 966.354C1078.55 965.617 1079.29 964.88 1080.03 964.88C1080.77 964.88 1081.5 965.617 1081.5 966.354C1081.5 967.09 1080.77 967.827 1080.03 967.827C1079.29 967.827 1078.55 967.09 1078.55 966.354Z" fill="white"/>
<path opacity="0.7" d="M1264.71 897.465C1264.71 895.991 1266.18 894.517 1267.66 894.517C1269.13 894.517 1270.61 895.991 1270.61 897.465C1270.61 898.938 1269.13 900.412 1267.66 900.412C1266.18 900.412 1264.71 898.938 1264.71 897.465Z" fill="white"/>
<path opacity="0.7" d="M1232.38 935.575C1232.38 934.101 1233.85 932.628 1235.33 932.628C1236.8 932.628 1238.28 934.101 1238.28 935.575C1238.28 937.048 1236.8 938.522 1235.33 938.522C1233.85 938.522 1232.38 937.048 1232.38 935.575Z" fill="white"/>
<path opacity="0.7" d="M1267.26 739.696C1267.26 738.223 1268.73 736.749 1270.21 736.749C1271.69 736.749 1273.16 738.223 1273.16 739.696C1273.16 741.17 1271.69 742.644 1270.21 742.644C1268.73 742.644 1267.26 741.17 1267.26 739.696Z" fill="white"/>
<path opacity="0.7" d="M1112.8 947.609C1112.8 946.135 1114.28 944.661 1115.76 944.661C1117.23 944.661 1118.71 946.135 1118.71 947.609C1118.71 949.082 1117.23 950.556 1115.76 950.556C1114.28 950.556 1112.8 949.082 1112.8 947.609Z" fill="white"/>
<path opacity="0.7" d="M1187.5 753.089C1187.5 751.615 1188.24 750.879 1189.72 750.879C1191.19 750.879 1191.93 751.615 1191.93 753.089C1191.93 754.563 1191.19 755.299 1189.72 755.299C1188.24 755.299 1187.5 754.563 1187.5 753.089Z" fill="white"/>
<path opacity="0.7" d="M968.615 826.324C968.615 824.113 970.828 821.903 973.041 821.903C975.254 821.903 977.467 824.113 977.467 826.324C977.467 828.534 975.254 830.744 973.041 830.744C970.09 830.744 968.615 829.271 968.615 826.324Z" fill="white"/>
<path opacity="0.7" d="M1170.49 987.556C1170.49 986.082 1171.23 985.346 1172.7 985.346C1174.18 985.346 1174.92 986.082 1174.92 987.556C1174.92 989.03 1174.18 989.766 1172.7 989.766C1171.97 989.766 1170.49 989.03 1170.49 987.556Z" fill="white"/>
<path opacity="0.7" d="M1198.25 1227.34C1198.25 1226.6 1198.99 1225.86 1199.73 1225.86C1200.46 1225.86 1201.2 1226.6 1201.2 1227.34C1201.2 1228.07 1200.46 1228.81 1199.73 1228.81C1198.99 1229.55 1198.25 1228.81 1198.25 1227.34Z" fill="white"/>
<path opacity="0.7" d="M1204.96 1074.96C1204.96 1074.22 1205.7 1073.48 1206.43 1073.48C1207.17 1073.48 1207.91 1074.22 1207.91 1074.96C1207.91 1075.69 1207.17 1076.43 1206.43 1076.43C1205.7 1076.43 1204.96 1075.69 1204.96 1074.96Z" fill="white"/>
<path opacity="0.7" d="M1013.97 1123.74C1013.97 1123.01 1014.71 1122.27 1015.45 1122.27C1016.19 1122.27 1016.92 1123.01 1016.92 1123.74C1016.92 1124.48 1016.19 1125.22 1015.45 1125.22C1014.71 1125.22 1013.97 1124.48 1013.97 1123.74Z" fill="white"/>
<path opacity="0.7" d="M1028.02 1027.1C1028.02 1026.36 1028.75 1025.63 1029.49 1025.63C1030.23 1025.63 1030.97 1026.36 1030.97 1027.1C1030.97 1027.84 1030.23 1028.57 1029.49 1028.57C1028.75 1028.57 1028.02 1027.84 1028.02 1027.1Z" fill="white"/>
<path opacity="0.7" d="M1097.51 1163.64C1097.51 1162.91 1098.25 1162.17 1098.99 1162.17C1099.73 1162.17 1100.46 1162.91 1100.46 1163.64C1100.46 1164.38 1099.73 1165.12 1098.99 1165.12C1098.25 1165.85 1097.51 1165.12 1097.51 1163.64Z" fill="white"/>
<path opacity="0.7" d="M955.358 1030.5C954.543 1030.5 953.883 1031.16 953.883 1031.98C953.883 1032.79 954.543 1033.45 955.358 1033.45C956.173 1033.45 956.833 1032.79 956.833 1031.98C956.833 1031.16 956.173 1030.5 955.358 1030.5Z" fill="white"/>
<path opacity="0.7" d="M1134.62 1201.79C1134.62 1201.05 1135.36 1200.32 1136.1 1200.32C1136.84 1200.32 1137.57 1201.05 1137.57 1201.79C1137.57 1202.53 1136.84 1203.26 1136.1 1203.26C1135.36 1203.26 1134.62 1202.53 1134.62 1201.79Z" fill="white"/>
<path opacity="0.7" d="M1626.49 1245.3C1626.49 1243.09 1628.7 1240.88 1630.91 1240.88C1633.13 1240.88 1635.34 1243.09 1635.34 1245.3C1635.34 1247.51 1633.13 1249.72 1630.91 1249.72C1627.96 1249.72 1626.49 1247.51 1626.49 1245.3Z" fill="white"/>
<path opacity="0.7" d="M1049.73 1186.98C1049.73 1185.51 1051.2 1184.04 1052.68 1184.04C1054.16 1184.04 1055.63 1185.51 1055.63 1186.98C1055.63 1188.46 1054.16 1189.93 1052.68 1189.93C1051.2 1189.93 1049.73 1188.46 1049.73 1186.98Z" fill="white"/>
<path opacity="0.7" d="M1083.1 1033.09C1083.1 1031.61 1084.58 1030.14 1086.05 1030.14C1087.53 1030.14 1089 1031.61 1089 1033.09C1089 1034.56 1087.53 1036.03 1086.05 1036.03C1083.84 1036.03 1083.1 1034.56 1083.1 1033.09Z" fill="white"/>
<path opacity="0.7" d="M1130.36 1074.73C1130.36 1073.25 1131.84 1071.78 1133.31 1071.78C1134.79 1071.78 1136.26 1073.25 1136.26 1074.73C1136.26 1076.2 1134.79 1077.67 1133.31 1077.67C1131.1 1077.67 1130.36 1076.94 1130.36 1074.73Z" fill="white"/>
<path opacity="0.7" d="M1246.27 1131.12C1246.27 1129.64 1247.74 1128.17 1249.22 1128.17C1250.69 1128.17 1252.17 1129.64 1252.17 1131.12C1252.17 1132.59 1250.69 1134.06 1249.22 1134.06C1247.74 1134.06 1246.27 1133.33 1246.27 1131.12Z" fill="white"/>
<path opacity="0.7" d="M1166.47 1145.25C1166.47 1143.77 1167.21 1143.04 1168.68 1143.04C1170.16 1143.04 1170.9 1143.77 1170.9 1145.25C1170.9 1146.72 1170.16 1147.46 1168.68 1147.46C1167.21 1147.46 1166.47 1145.98 1166.47 1145.25Z" fill="white"/>
<path opacity="0.7" d="M1209.68 1042.05C1209.68 1040.57 1210.42 1039.84 1211.89 1039.84C1213.37 1039.84 1214.1 1040.57 1214.1 1042.05C1214.1 1043.52 1213.37 1044.26 1211.89 1044.26C1211.15 1044.26 1209.68 1043.52 1209.68 1042.05Z" fill="white"/>
<path opacity="0.7" d="M1075.14 1085.01C1075.14 1083.53 1075.88 1082.8 1077.36 1082.8C1078.83 1082.8 1079.57 1083.53 1079.57 1085.01C1079.57 1086.48 1078.83 1087.22 1077.36 1087.22C1076.62 1087.22 1075.14 1086.48 1075.14 1085.01Z" fill="white"/>
<path opacity="0.7" d="M1259.25 1054.42C1259.25 1052.21 1261.46 1050 1263.68 1050C1265.89 1050 1268.1 1052.21 1268.1 1054.42C1268.1 1056.63 1265.89 1058.84 1263.68 1058.84C1260.73 1058.84 1259.25 1056.63 1259.25 1054.42Z" fill="white"/>
<path opacity="0.7" d="M1056.19 791.017C1056.19 790.281 1056.93 789.544 1057.67 789.544C1058.41 789.544 1059.14 790.281 1059.14 791.017C1059.14 791.754 1058.41 792.491 1057.67 792.491C1056.93 792.491 1056.19 791.754 1056.19 791.017Z" fill="white"/>
<path opacity="0.7" d="M1218.74 721.56C1218.74 720.086 1219.48 719.349 1220.95 719.349C1222.43 719.349 1223.17 720.086 1223.17 721.56C1223.17 723.034 1222.43 723.77 1220.95 723.77C1219.48 723.77 1218.74 723.034 1218.74 721.56Z" fill="white"/>
<path opacity="0.7" d="M971.921 1150.27C971.921 1149.53 972.659 1148.79 973.396 1148.79C974.134 1148.79 974.872 1149.53 974.872 1150.27C974.872 1151 974.134 1151.74 973.396 1151.74C972.659 1151.74 971.921 1151 971.921 1150.27Z" fill="white"/>
<path opacity="0.7" d="M999.337 969.642C999.337 967.431 1001.55 965.221 1003.76 965.221C1005.98 965.221 1008.19 967.431 1008.19 969.642C1008.19 971.852 1005.98 974.062 1003.76 974.062C1001.55 974.062 999.337 971.852 999.337 969.642Z" fill="white"/>
<path opacity="0.7" d="M954.46 1035.04C954.46 1033.57 955.935 1032.09 957.41 1032.09C958.886 1032.09 960.361 1033.57 960.361 1035.04C960.361 1036.51 958.886 1037.99 957.41 1037.99C955.197 1037.99 954.46 1036.51 954.46 1035.04Z" fill="white"/>
<path opacity="0.7" d="M897.522 1146.36C897.522 1144.88 898.998 1143.41 900.473 1143.41C901.948 1143.41 903.423 1144.88 903.423 1146.36C903.423 1147.83 901.948 1149.3 900.473 1149.3C898.26 1149.3 897.522 1147.83 897.522 1146.36Z" fill="white"/>
<path opacity="0.7" d="M932.444 949.742C932.444 948.269 933.919 946.795 935.394 946.795C936.87 946.795 938.345 948.269 938.345 949.742C938.345 951.216 936.87 952.69 935.394 952.69C933.919 952.69 932.444 951.216 932.444 949.742Z" fill="white"/>
<path opacity="0.7" d="M883.146 932.301C883.146 930.828 883.883 930.091 885.358 930.091C886.834 930.091 887.571 930.828 887.571 932.301C887.571 933.775 886.834 934.512 885.358 934.512C884.621 934.512 883.146 933.038 883.146 932.301Z" fill="white"/>
<path opacity="0.7" d="M664.234 1005.96C664.234 1006.69 663.497 1007.43 662.759 1007.43C662.021 1007.43 661.284 1006.69 661.284 1005.96C661.284 1005.22 662.021 1004.48 662.759 1004.48C663.497 1003.74 664.234 1004.48 664.234 1005.96Z" fill="white"/>
<path opacity="0.7" d="M699.858 1167.98C699.858 1168.72 699.121 1169.46 698.383 1169.46C697.645 1169.46 696.908 1168.72 696.908 1167.98C696.908 1167.25 697.645 1166.51 698.383 1166.51C699.121 1166.51 699.858 1166.51 699.858 1167.98Z" fill="white"/>
<path opacity="0.7" d="M820.724 980.406C820.724 981.142 819.986 981.879 819.248 981.879C818.511 981.879 817.773 981.142 817.773 980.406C817.773 979.669 818.511 978.932 819.248 978.932C819.986 978.932 820.724 979.669 820.724 980.406Z" fill="white"/>
<path opacity="0.7" d="M792.568 1160.99C792.568 1163.2 790.355 1165.41 788.142 1165.41C785.929 1165.41 783.716 1163.2 783.716 1160.99C783.716 1158.78 785.929 1156.57 788.142 1156.57C790.355 1156.57 792.568 1158.78 792.568 1160.99Z" fill="white"/>
<path opacity="0.7" d="M664.871 1104.05C664.871 1105.52 663.396 1106.99 661.921 1106.99C660.445 1106.99 658.97 1105.52 658.97 1104.05C658.97 1102.57 660.445 1101.1 661.921 1101.1C663.396 1101.1 664.871 1102.57 664.871 1104.05Z" fill="white"/>
<path opacity="0.7" d="M706.882 871.737C706.882 872.474 706.144 873.211 705.406 873.211C704.668 873.211 703.931 872.474 703.931 871.737C703.931 871 704.668 870.264 705.406 870.264C706.144 870.264 706.882 871 706.882 871.737Z" fill="white"/>
<path opacity="0.7" d="M685.864 712.627C685.864 714.101 684.388 715.574 682.913 715.574C681.438 715.574 679.963 714.101 679.963 712.627C679.963 711.153 681.438 709.68 682.913 709.68C684.388 709.68 685.864 710.417 685.864 712.627Z" fill="white"/>
<path opacity="0.7" d="M1345.07 1162C1345.07 1162.74 1344.33 1163.48 1343.59 1163.48C1342.85 1163.48 1342.12 1162.74 1342.12 1162C1342.12 1161.27 1342.85 1160.53 1343.59 1160.53C1344.33 1160.53 1345.07 1161.27 1345.07 1162Z" fill="white"/>
<path opacity="0.7" d="M793.262 1079.2C793.262 1080.68 791.787 1082.15 790.312 1082.15C788.836 1082.15 787.361 1080.68 787.361 1079.2C787.361 1077.73 788.836 1076.26 790.312 1076.26C791.787 1076.26 793.262 1077.73 793.262 1079.2Z" fill="white"/>
<path opacity="0.7" d="M859.465 1180.89C859.465 1182.37 857.989 1183.84 856.514 1183.84C855.039 1183.84 853.563 1182.37 853.563 1180.89C853.563 1179.42 855.039 1177.94 856.514 1177.94C857.989 1177.94 859.465 1179.42 859.465 1180.89Z" fill="white"/>
<path opacity="0.7" d="M880.496 788.735C880.496 790.209 879.021 791.683 877.546 791.683C876.07 791.683 874.595 790.209 874.595 788.735C874.595 787.262 876.07 785.788 877.546 785.788C879.759 785.788 880.496 787.262 880.496 788.735Z" fill="white"/>
<path opacity="0.7" d="M867.514 865.436C867.514 867.646 865.301 869.857 863.089 869.857C860.876 869.857 858.663 867.646 858.663 865.436C858.663 863.225 860.876 861.015 863.089 861.015C866.039 861.752 867.514 863.225 867.514 865.436Z" fill="white"/>
<path opacity="0.7" d="M318.121 848.134C318.121 846.66 318.859 845.923 320.334 845.923C321.81 845.923 322.547 846.66 322.547 848.134C322.547 849.607 321.81 850.344 320.334 850.344C319.597 850.344 318.121 849.607 318.121 848.134Z" fill="white"/>
<path opacity="0.7" d="M364.982 855.772C364.982 855.035 365.72 854.299 366.458 854.299C367.195 854.299 367.933 855.035 367.933 855.772C367.933 856.509 367.195 857.246 366.458 857.246C365.72 857.246 364.982 856.509 364.982 855.772Z" fill="white"/>
<path opacity="0.7" d="M227.514 843.234C227.514 842.498 228.251 841.761 228.989 841.761C229.727 841.761 230.464 842.498 230.464 843.234C230.464 843.971 229.727 844.708 228.989 844.708C228.251 845.445 227.514 844.708 227.514 843.234Z" fill="white"/>
<path opacity="0.7" d="M329.35 693.744C329.35 693.008 330.088 692.271 330.826 692.271C331.563 692.271 332.301 693.008 332.301 693.744C332.301 694.481 331.563 695.218 330.826 695.218C330.088 695.218 329.35 694.481 329.35 693.744Z" fill="white"/>
<path opacity="0.7" d="M1467.64 1135.53C1467.64 1134.8 1468.37 1134.06 1469.11 1134.06C1469.85 1134.06 1470.59 1134.8 1470.59 1135.53C1470.59 1136.27 1469.85 1137.01 1469.11 1137.01C1468.37 1137.74 1467.64 1137.01 1467.64 1135.53Z" fill="white"/>
<path opacity="0.7" d="M49.3495 776.863C49.3495 776.126 50.0872 775.39 50.8248 775.39C51.5624 775.39 52.3 776.126 52.3 776.863C52.3 777.6 51.5624 778.337 50.8248 778.337C50.0872 779.074 49.3495 778.337 49.3495 776.863Z" fill="white"/>
<path opacity="0.7" d="M209.265 880.626C209.265 879.889 210.002 879.152 210.74 879.152C211.477 879.152 212.215 879.889 212.215 880.626C212.215 881.362 211.477 882.099 210.74 882.099C210.002 882.099 209.265 881.362 209.265 880.626Z" fill="white"/>
<path opacity="0.7" d="M372.165 928.469C372.165 927.732 372.902 926.996 373.64 926.996C374.378 926.996 375.115 927.732 375.115 928.469C375.115 929.206 374.378 929.943 373.64 929.943C372.902 929.943 372.165 929.206 372.165 928.469Z" fill="white"/>
<path opacity="0.7" d="M404.707 831.379C404.707 829.906 405.445 829.169 406.92 829.169C408.396 829.169 409.133 829.906 409.133 831.379C409.133 832.853 408.396 833.59 406.92 833.59C406.183 833.59 404.707 832.853 404.707 831.379Z" fill="white"/>
<path opacity="0.7" d="M1662.37 1182.29C1662.37 1180.08 1664.59 1177.87 1666.8 1177.87C1669.01 1177.87 1671.23 1180.08 1671.23 1182.29C1671.23 1184.5 1669.01 1186.71 1666.8 1186.71C1663.85 1185.97 1662.37 1184.5 1662.37 1182.29Z" fill="white"/>
<path opacity="0.7" d="M525.99 897.69C525.99 896.217 527.465 894.743 528.94 894.743C530.416 894.743 531.891 896.217 531.891 897.69C531.891 899.164 530.416 900.638 528.94 900.638C527.465 900.638 525.99 899.164 525.99 897.69Z" fill="white"/>
<path opacity="0.7" d="M406.416 909.724C406.416 908.251 407.892 906.777 409.367 906.777C410.842 906.777 412.318 908.251 412.318 909.724C412.318 911.198 410.842 912.671 409.367 912.671C407.892 912.671 406.416 911.198 406.416 909.724Z" fill="white"/>
<path opacity="0.7" d="M492.603 1189.49C492.603 1188.76 493.341 1188.02 494.079 1188.02C494.816 1188.02 495.554 1188.76 495.554 1189.49C495.554 1190.23 494.816 1190.97 494.079 1190.97C493.341 1191.7 492.603 1190.97 492.603 1189.49Z" fill="white"/>
<path opacity="0.7" d="M189.777 1106.11C189.777 1105.37 190.515 1104.63 191.252 1104.63C191.99 1104.63 192.728 1105.37 192.728 1106.11C192.728 1106.84 191.99 1107.58 191.252 1107.58C190.515 1108.32 189.777 1107.58 189.777 1106.11Z" fill="white"/>
<path opacity="0.7" d="M308.319 1085.9C308.319 1085.16 309.056 1084.43 309.794 1084.43C310.532 1084.43 311.269 1085.16 311.269 1085.9C311.269 1086.64 310.532 1087.37 309.794 1087.37C309.056 1087.37 308.319 1086.64 308.319 1085.9Z" fill="white"/>
<path opacity="0.7" d="M322.367 989.254C322.367 988.518 323.105 987.781 323.842 987.781C324.58 987.781 325.317 988.518 325.317 989.254C325.317 989.991 324.58 990.728 323.842 990.728C323.105 990.728 322.367 989.991 322.367 989.254Z" fill="white"/>
<path opacity="0.7" d="M391.864 1125.8C391.864 1125.06 392.601 1124.33 393.339 1124.33C394.077 1124.33 394.814 1125.06 394.814 1125.8C394.814 1126.54 394.077 1127.27 393.339 1127.27C392.601 1128.01 391.864 1127.27 391.864 1125.8Z" fill="white"/>
<path opacity="0.7" d="M248.236 994.133C248.236 993.396 248.973 992.659 249.711 992.659C250.449 992.659 251.186 993.396 251.186 994.133C251.186 994.869 250.449 995.606 249.711 995.606C248.973 995.606 248.236 994.869 248.236 994.133Z" fill="white"/>
<path opacity="0.7" d="M428.977 1163.94C428.977 1163.21 429.714 1162.47 430.452 1162.47C431.19 1162.47 431.927 1163.21 431.927 1163.94C431.927 1164.68 431.19 1165.42 430.452 1165.42C429.714 1165.42 428.977 1164.68 428.977 1163.94Z" fill="white"/>
<path opacity="0.7" d="M343.348 1149.1C343.348 1147.63 344.823 1146.15 346.298 1146.15C347.774 1146.15 349.249 1147.63 349.249 1149.1C349.249 1150.57 347.774 1152.05 346.298 1152.05C344.823 1152.05 343.348 1150.57 343.348 1149.1Z" fill="white"/>
<path opacity="0.7" d="M376.713 995.2C376.713 993.727 378.188 992.253 379.664 992.253C381.139 992.253 382.614 993.727 382.614 995.2C382.614 996.674 381.139 998.148 379.664 998.148C378.188 998.148 376.713 996.674 376.713 995.2Z" fill="white"/>
<path opacity="0.7" d="M423.975 1036.84C423.975 1035.37 425.45 1033.89 426.925 1033.89C428.4 1033.89 429.876 1035.37 429.876 1036.84C429.876 1038.32 428.4 1039.79 426.925 1039.79C425.45 1039.79 423.975 1039.05 423.975 1036.84Z" fill="white"/>
<path opacity="0.7" d="M539.885 1093.23C539.885 1091.76 541.36 1090.29 542.835 1090.29C544.311 1090.29 545.786 1091.76 545.786 1093.23C545.786 1094.71 544.311 1096.18 542.835 1096.18C541.36 1096.18 539.885 1095.44 539.885 1093.23Z" fill="white"/>
<path opacity="0.7" d="M460.817 1107.4C460.817 1105.93 461.554 1105.19 463.03 1105.19C464.505 1105.19 465.242 1105.93 465.242 1107.4C465.242 1108.87 464.505 1109.61 463.03 1109.61C461.554 1109.61 460.817 1108.14 460.817 1107.4Z" fill="white"/>
<path opacity="0.7" d="M343.777 810.364C343.777 809.627 344.514 808.89 345.252 808.89C345.989 808.89 346.727 809.627 346.727 810.364C346.727 811.101 345.989 811.838 345.252 811.838C344.514 812.575 343.777 811.838 343.777 810.364Z" fill="white"/>
<path opacity="0.7" d="M782.72 780.118C782.72 778.645 784.195 777.171 785.67 777.171C787.146 777.171 788.621 778.645 788.621 780.118C788.621 781.592 787.146 783.066 785.67 783.066C784.195 783.066 782.72 782.329 782.72 780.118Z" fill="white"/>
<path opacity="0.7" d="M212.474 683.049C212.474 682.312 213.212 681.575 213.949 681.575C214.687 681.575 215.424 682.312 215.424 683.049C215.424 683.785 214.687 684.522 213.949 684.522C213.212 684.522 212.474 683.785 212.474 683.049Z" fill="white"/>
<path opacity="0.7" d="M512.353 683.675C512.353 682.202 513.091 681.465 514.566 681.465C516.042 681.465 516.779 682.202 516.779 683.675C516.779 685.149 516.042 685.886 514.566 685.886C513.091 685.886 512.353 685.149 512.353 683.675Z" fill="white"/>
<path opacity="0.7" d="M55.0583 1014.76C55.0583 1014.03 55.796 1013.29 56.5337 1013.29C57.2714 1013.29 58.009 1014.03 58.009 1014.76C58.009 1015.5 57.2714 1016.24 56.5337 1016.24C55.796 1016.97 55.0583 1016.24 55.0583 1014.76Z" fill="white"/>
<path opacity="0.7" d="M21.0001 713.362C21.0001 712.625 21.7377 711.888 22.4753 711.888C23.2129 711.888 23.9505 712.625 23.9505 713.362C23.9505 714.099 23.2129 714.836 22.4753 714.836C21.7377 714.836 21.0001 714.099 21.0001 713.362Z" fill="white"/>
<path opacity="0.7" d="M167.195 838.604C167.195 837.13 168.67 835.656 170.145 835.656C171.62 835.656 173.096 837.13 173.096 838.604C173.096 840.077 171.62 841.551 170.145 841.551C168.67 841.551 167.195 840.077 167.195 838.604Z" fill="white"/>
<path opacity="0.7" d="M134.866 876.714C134.866 875.24 136.341 873.767 137.817 873.767C139.292 873.767 140.767 875.24 140.767 876.714C140.767 878.188 139.292 879.661 137.817 879.661C135.604 879.661 134.866 878.188 134.866 876.714Z" fill="white"/>
<path opacity="0.7" d="M169.747 680.836C169.747 679.362 171.222 677.888 172.697 677.888C174.173 677.888 175.648 679.362 175.648 680.836C175.648 682.309 174.173 683.783 172.697 683.783C171.222 683.783 169.747 682.309 169.747 680.836Z" fill="white"/>
<path opacity="0.7" d="M15.2912 888.748C15.2912 887.274 16.7664 885.8 18.2417 885.8C19.7169 885.8 21.1921 887.274 21.1921 888.748C21.1921 890.221 19.7169 891.695 18.2417 891.695C16.0288 891.695 15.2912 890.221 15.2912 888.748Z" fill="white"/>
<path opacity="0.7" d="M89.9895 694.228C89.9895 692.754 90.7271 692.018 92.2024 692.018C93.6777 692.018 94.4152 692.754 94.4152 694.228C94.4152 695.702 93.6777 696.438 92.2024 696.438C90.7271 696.438 89.9895 695.702 89.9895 694.228Z" fill="white"/>
<path opacity="0.7" d="M72.9796 928.695C72.9796 927.221 73.7173 926.485 75.1926 926.485C76.6679 926.485 77.4055 927.221 77.4055 928.695C77.4055 930.169 76.6679 930.905 75.1926 930.905C73.7173 930.905 72.9796 930.169 72.9796 928.695Z" fill="white"/>
<path opacity="0.7" d="M100.738 1168.48C100.738 1167.74 101.476 1167 102.213 1167C102.951 1167 103.689 1167.74 103.689 1168.48C103.689 1169.21 102.951 1169.95 102.213 1169.95C101.476 1170.69 100.738 1169.95 100.738 1168.48Z" fill="white"/>
<path opacity="0.7" d="M-4.95164e-06 1104.78C-4.95164e-06 1104.05 0.737595 1103.31 1.47522 1103.31C2.21284 1103.31 2.95044 1104.05 2.95044 1104.78C2.95044 1105.52 2.21284 1106.26 1.47522 1106.26C0.737595 1106.99 -4.95164e-06 1106.26 -4.95164e-06 1104.78Z" fill="white"/>
<path opacity="0.7" d="M37.1115 1142.93C37.1115 1142.19 37.8492 1141.45 38.5868 1141.45C39.3245 1141.45 40.0621 1142.19 40.0621 1142.93C40.0621 1143.67 39.3245 1144.4 38.5868 1144.4C37.8492 1144.4 37.1115 1143.67 37.1115 1142.93Z" fill="white"/>
<path opacity="0.7" d="M966.111 762.732C966.111 760.522 968.324 758.311 970.537 758.311C972.75 758.311 974.963 760.522 974.963 762.732C974.963 764.942 972.75 767.153 970.537 767.153C967.587 766.416 966.111 764.942 966.111 762.732Z" fill="white"/>
<g opacity="0.7">
<path opacity="0.7" d="M866.152 1086.94L865.414 1071.46L849.186 1069.99L864.677 1069.25L866.152 1053.04L867.627 1069.25L883.118 1069.99L867.627 1071.46L866.152 1086.94Z" fill="white"/>
<path opacity="0.7" d="M859.514 1077.36L864.678 1070.73L859.514 1063.36L866.153 1069.25L873.53 1062.62L867.629 1069.99L873.53 1077.36L866.153 1071.46L859.514 1077.36Z" fill="white"/>
</g>
<g opacity="0.7">
<path opacity="0.7" d="M1031.66 1127.54L1030.19 1112.07L1014.69 1110.6L1030.19 1109.86L1031.66 1093.65L1033.14 1109.86L1048.63 1110.6L1033.14 1112.07L1031.66 1127.54Z" fill="white"/>
<path opacity="0.7" d="M1025.02 1117.96L1030.19 1110.6L1025.02 1103.96L1031.66 1109.12L1039.04 1103.23L1032.4 1110.6L1039.04 1117.23L1031.66 1112.07L1025.02 1117.96Z" fill="white"/>
</g>
<g opacity="0.7">
<path opacity="0.7" d="M946.361 715.67L945.623 705.355L934.558 703.881H945.623L946.361 692.092L947.098 703.881H958.163L947.098 705.355L946.361 715.67Z" fill="white"/>
<path opacity="0.7" d="M941.932 709.039L945.621 704.618L941.932 699.461L946.358 703.882L951.522 699.461L947.096 704.618L951.522 709.039L946.358 705.355L941.932 709.039Z" fill="white"/>
</g>
<g opacity="0.7">
<path opacity="0.7" d="M1290.99 1162.86L1290.26 1152.54L1279.19 1151.07H1289.52L1290.99 1139.28L1291.73 1151.07H1302.8L1291.73 1152.54L1290.99 1162.86Z" fill="white"/>
<path opacity="0.7" d="M1285.83 1156.23L1289.52 1151.8L1285.83 1146.65L1290.99 1150.33L1296.15 1146.65L1291.73 1151.07L1296.15 1156.23L1290.99 1152.54L1285.83 1156.23Z" fill="white"/>
</g>
<g opacity="0.7">
<path opacity="0.7" d="M605.337 1137.89L604.599 1127.57L593.535 1126.1H604.599L605.337 1114.31L606.075 1126.1H617.139L606.075 1127.57L605.337 1137.89Z" fill="white"/>
<path opacity="0.7" d="M600.171 1131.26L604.597 1126.84L600.171 1121.68L605.334 1125.36L610.498 1121.68L606.072 1126.1L610.498 1131.26L605.334 1127.58L600.171 1131.26Z" fill="white"/>
</g>
<g opacity="0.7">
<path opacity="0.7" d="M310.885 724.378L309.41 709.642L293.919 707.432H309.41L310.885 690.485L312.36 707.432H327.851L312.36 709.642L310.885 724.378Z" fill="white"/>
<path opacity="0.7" d="M304.248 715.537L309.411 708.169L304.248 700.801L310.886 706.695L318.263 700.801L311.624 708.169L318.263 714.8L310.886 709.642L304.248 715.537Z" fill="white"/>
</g>
<g opacity="0.7">
<path opacity="0.7" d="M183.165 1103.44L182.427 1093.13L171.363 1091.65H182.427L183.165 1079.86L183.903 1091.65H194.967L183.903 1093.13L183.165 1103.44Z" fill="white"/>
<path opacity="0.7" d="M178.737 1096.81L182.425 1092.39L178.737 1087.23L183.163 1090.92L188.326 1087.23L183.9 1091.65L188.326 1096.81L183.163 1093.13L178.737 1096.81Z" fill="white"/>
</g>
<g opacity="0.7">
<path opacity="0.7" d="M431.278 871.037L430.541 859.985L419.476 859.248L430.541 858.512L431.278 847.46L432.016 858.512L443.081 859.248L432.016 859.985L431.278 871.037Z" fill="white"/>
<path opacity="0.7" d="M426.85 864.407L430.538 859.249L426.85 854.091L431.276 858.512L436.439 854.091L432.014 859.249L436.439 863.67L431.276 859.986L426.85 864.407Z" fill="white"/>
</g>
<g opacity="0.7">
<path opacity="0.7" d="M591.106 810.987L590.369 799.935L579.304 799.198L590.369 798.462L591.106 787.409L591.844 798.462L602.909 799.198L591.844 799.935L591.106 810.987Z" fill="white"/>
<path opacity="0.7" d="M586.678 804.357L590.366 799.199L586.678 794.041L591.104 798.462L596.267 794.041L591.842 799.199L596.267 803.62L591.104 799.936L586.678 804.357Z" fill="white"/>
</g>
<path opacity="0.7" d="M1415.63 625.307C1415.63 623.833 1416.37 623.097 1417.85 623.097C1419.32 623.097 1420.06 623.833 1420.06 625.307C1420.06 626.781 1419.32 627.517 1417.85 627.517C1417.11 627.517 1415.63 626.781 1415.63 625.307Z" fill="white"/>
<path opacity="0.7" d="M1325.03 620.408C1325.03 619.671 1325.77 618.934 1326.5 618.934C1327.24 618.934 1327.98 619.671 1327.98 620.408C1327.98 621.145 1327.24 621.881 1326.5 621.881C1325.77 622.618 1325.03 621.881 1325.03 620.408Z" fill="white"/>
<path opacity="0.7" d="M484.651 546.561C484.651 545.824 485.389 545.087 486.126 545.087C486.864 545.087 487.602 545.824 487.602 546.561C487.602 547.297 486.864 548.034 486.126 548.034C485.389 548.034 484.651 547.297 484.651 546.561Z" fill="white"/>
<path opacity="0.7" d="M1306.78 657.799C1306.78 657.062 1307.51 656.325 1308.25 656.325C1308.99 656.325 1309.73 657.062 1309.73 657.799C1309.73 658.536 1308.99 659.273 1308.25 659.273C1307.51 659.273 1306.78 658.536 1306.78 657.799Z" fill="white"/>
<path opacity="0.7" d="M1236.46 564.086C1236.46 562.613 1237.93 561.139 1239.41 561.139C1240.88 561.139 1242.36 562.613 1242.36 564.086C1242.36 565.56 1240.88 567.034 1239.41 567.034C1237.2 567.034 1236.46 565.56 1236.46 564.086Z" fill="white"/>
<path opacity="0.7" d="M1503.93 686.898C1503.93 685.424 1505.4 683.95 1506.88 683.95C1508.35 683.95 1509.83 685.424 1509.83 686.898C1509.83 688.371 1508.35 689.845 1506.88 689.845C1505.4 689.845 1503.93 688.371 1503.93 686.898Z" fill="white"/>
<path opacity="0.7" d="M1441.29 587.537C1441.29 586.801 1442.03 586.064 1442.76 586.064C1443.5 586.064 1444.24 586.801 1444.24 587.537C1444.24 588.274 1443.5 589.011 1442.76 589.011C1442.03 589.748 1441.29 589.011 1441.29 587.537Z" fill="white"/>
<path opacity="0.7" d="M636.786 588.662C636.786 587.925 637.524 587.188 638.261 587.188C638.999 587.188 639.736 587.925 639.736 588.662C639.736 589.399 638.999 590.136 638.261 590.136C637.524 590.136 636.786 589.399 636.786 588.662Z" fill="white"/>
<path opacity="0.7" d="M678.218 642.614C678.218 641.14 679.694 639.666 681.169 639.666C682.644 639.666 684.12 641.14 684.12 642.614C684.12 644.087 682.644 645.561 681.169 645.561C679.694 645.561 678.218 644.087 678.218 642.614Z" fill="white"/>
<path opacity="0.7" d="M750.773 667.166C750.773 665.692 752.248 664.218 753.723 664.218C755.198 664.218 756.674 665.692 756.674 667.166C756.674 668.639 755.198 670.113 753.723 670.113C752.248 670.113 750.773 668.639 750.773 667.166Z" fill="white"/>
<path opacity="0.7" d="M795.232 554.363C795.232 553.626 795.969 552.89 796.707 552.89C797.445 552.89 798.182 553.626 798.182 554.363C798.182 555.1 797.445 555.837 796.707 555.837C795.969 555.837 795.232 555.1 795.232 554.363Z" fill="white"/>
<path opacity="0.7" d="M1020.16 602.741C1020.16 600.53 1022.37 598.32 1024.59 598.32C1026.8 598.32 1029.01 600.53 1029.01 602.741C1029.01 604.951 1026.8 607.161 1024.59 607.161C1022.37 606.425 1020.16 604.951 1020.16 602.741Z" fill="white"/>
<path opacity="0.7" d="M1071.37 611.969C1071.37 611.232 1072.11 610.496 1072.85 610.496C1073.58 610.496 1074.32 611.232 1074.32 611.969C1074.32 612.706 1073.58 613.443 1072.85 613.443C1072.11 613.443 1071.37 612.706 1071.37 611.969Z" fill="white"/>
<path opacity="0.7" d="M1156.39 527.986C1156.39 527.249 1157.13 526.512 1157.86 526.512C1158.6 526.512 1159.34 527.249 1159.34 527.986C1159.34 528.723 1158.6 529.459 1157.86 529.459C1157.13 530.196 1156.39 529.459 1156.39 527.986Z" fill="white"/>
<path opacity="0.7" d="M914.912 636.783C914.912 636.046 915.649 635.309 916.387 635.309C917.125 635.309 917.862 636.046 917.862 636.783C917.862 637.52 917.125 638.256 916.387 638.256C915.649 638.256 914.912 637.52 914.912 636.783Z" fill="white"/>
<path opacity="0.7" d="M1078.55 684.666C1078.55 683.929 1079.29 683.192 1080.03 683.192C1080.77 683.192 1081.5 683.929 1081.5 684.666C1081.5 685.403 1080.77 686.14 1080.03 686.14C1079.29 686.14 1078.55 685.403 1078.55 684.666Z" fill="white"/>
<path opacity="0.7" d="M1264.71 615.777C1264.71 614.303 1266.18 612.83 1267.66 612.83C1269.13 612.83 1270.61 614.303 1270.61 615.777C1270.61 617.251 1269.13 618.724 1267.66 618.724C1266.18 618.724 1264.71 617.251 1264.71 615.777Z" fill="white"/>
<path opacity="0.7" d="M1232.38 653.887C1232.38 652.414 1233.85 650.94 1235.33 650.94C1236.8 650.94 1238.28 652.414 1238.28 653.887C1238.28 655.361 1236.8 656.835 1235.33 656.835C1233.85 656.835 1232.38 655.361 1232.38 653.887Z" fill="white"/>
<path opacity="0.7" d="M1112.8 665.921C1112.8 664.447 1114.28 662.974 1115.76 662.974C1117.23 662.974 1118.71 664.447 1118.71 665.921C1118.71 667.395 1117.23 668.868 1115.76 668.868C1114.28 668.868 1112.8 667.395 1112.8 665.921Z" fill="white"/>
<path opacity="0.7" d="M968.615 544.636C968.615 542.426 970.828 540.215 973.041 540.215C975.254 540.215 977.467 542.426 977.467 544.636C977.467 546.846 975.254 549.057 973.041 549.057C970.09 549.057 968.615 547.583 968.615 544.636Z" fill="white"/>
<path opacity="0.7" d="M999.337 687.954C999.337 685.744 1001.55 683.533 1003.76 683.533C1005.98 683.533 1008.19 685.744 1008.19 687.954C1008.19 690.164 1005.98 692.375 1003.76 692.375C1001.55 692.375 999.337 690.164 999.337 687.954Z" fill="white"/>
<path opacity="0.7" d="M932.444 668.055C932.444 666.581 933.919 665.108 935.394 665.108C936.87 665.108 938.345 666.581 938.345 668.055C938.345 669.528 936.87 671.002 935.394 671.002C933.919 671.002 932.444 669.528 932.444 668.055Z" fill="white"/>
<path opacity="0.7" d="M883.146 650.614C883.146 649.14 883.883 648.403 885.358 648.403C886.834 648.403 887.571 649.14 887.571 650.614C887.571 652.087 886.834 652.824 885.358 652.824C884.621 652.824 883.146 651.35 883.146 650.614Z" fill="white"/>
<path opacity="0.7" d="M820.724 698.718C820.724 699.455 819.986 700.192 819.248 700.192C818.511 700.192 817.773 699.455 817.773 698.718C817.773 697.981 818.511 697.244 819.248 697.244C819.986 697.244 820.724 697.981 820.724 698.718Z" fill="white"/>
<path opacity="0.7" d="M706.882 590.05C706.882 590.786 706.144 591.523 705.406 591.523C704.668 591.523 703.931 590.786 703.931 590.05C703.931 589.313 704.668 588.576 705.406 588.576C706.144 588.576 706.882 589.313 706.882 590.05Z" fill="white"/>
<path opacity="0.7" d="M867.514 583.748C867.514 585.959 865.301 588.169 863.089 588.169C860.876 588.169 858.663 585.959 858.663 583.748C858.663 581.538 860.876 579.327 863.089 579.327C866.039 580.064 867.514 581.538 867.514 583.748Z" fill="white"/>
<path opacity="0.7" d="M318.121 566.446C318.121 564.972 318.859 564.236 320.334 564.236C321.81 564.236 322.547 564.972 322.547 566.446C322.547 567.92 321.81 568.656 320.334 568.656C319.597 568.656 318.121 567.92 318.121 566.446Z" fill="white"/>
<path opacity="0.7" d="M364.982 574.085C364.982 573.348 365.72 572.611 366.458 572.611C367.195 572.611 367.933 573.348 367.933 574.085C367.933 574.822 367.195 575.558 366.458 575.558C365.72 575.558 364.982 574.822 364.982 574.085Z" fill="white"/>
<path opacity="0.7" d="M227.514 561.547C227.514 560.81 228.251 560.073 228.989 560.073C229.727 560.073 230.464 560.81 230.464 561.547C230.464 562.284 229.727 563.02 228.989 563.02C228.251 563.757 227.514 563.02 227.514 561.547Z" fill="white"/>
<path opacity="0.7" d="M209.265 598.938C209.265 598.201 210.002 597.464 210.74 597.464C211.477 597.464 212.215 598.201 212.215 598.938C212.215 599.675 211.477 600.412 210.74 600.412C210.002 600.412 209.265 599.675 209.265 598.938Z" fill="white"/>
<path opacity="0.7" d="M372.165 646.782C372.165 646.045 372.902 645.308 373.64 645.308C374.378 645.308 375.115 646.045 375.115 646.782C375.115 647.518 374.378 648.255 373.64 648.255C372.902 648.255 372.165 647.518 372.165 646.782Z" fill="white"/>
<path opacity="0.7" d="M404.707 549.692C404.707 548.218 405.445 547.481 406.92 547.481C408.396 547.481 409.133 548.218 409.133 549.692C409.133 551.165 408.396 551.902 406.92 551.902C406.183 551.902 404.707 551.165 404.707 549.692Z" fill="white"/>
<path opacity="0.7" d="M525.99 616.003C525.99 614.529 527.465 613.056 528.94 613.056C530.416 613.056 531.891 614.529 531.891 616.003C531.891 617.476 530.416 618.95 528.94 618.95C527.465 618.95 525.99 617.476 525.99 616.003Z" fill="white"/>
<path opacity="0.7" d="M406.416 628.037C406.416 626.563 407.892 625.089 409.367 625.089C410.842 625.089 412.318 626.563 412.318 628.037C412.318 629.51 410.842 630.984 409.367 630.984C407.892 630.984 406.416 629.51 406.416 628.037Z" fill="white"/>
<path opacity="0.7" d="M343.777 528.677C343.777 527.94 344.514 527.203 345.252 527.203C345.989 527.203 346.727 527.94 346.727 528.677C346.727 529.413 345.989 530.15 345.252 530.15C344.514 530.887 343.777 530.15 343.777 528.677Z" fill="white"/>
<path opacity="0.7" d="M167.195 556.916C167.195 555.442 168.67 553.969 170.145 553.969C171.62 553.969 173.096 555.442 173.096 556.916C173.096 558.39 171.62 559.863 170.145 559.863C168.67 559.863 167.195 558.39 167.195 556.916Z" fill="white"/>
<path opacity="0.7" d="M134.866 595.026C134.866 593.553 136.341 592.079 137.817 592.079C139.292 592.079 140.767 593.553 140.767 595.026C140.767 596.5 139.292 597.974 137.817 597.974C135.604 597.974 134.866 596.5 134.866 595.026Z" fill="white"/>
<path opacity="0.7" d="M15.2912 607.06C15.2912 605.586 16.7664 604.113 18.2417 604.113C19.7169 604.113 21.1921 605.586 21.1921 607.06C21.1921 608.534 19.7169 610.007 18.2417 610.007C16.0288 610.007 15.2912 608.534 15.2912 607.06Z" fill="white"/>
<path opacity="0.7" d="M72.9796 647.007C72.9796 645.534 73.7173 644.797 75.1926 644.797C76.6679 644.797 77.4055 645.534 77.4055 647.007C77.4055 648.481 76.6679 649.218 75.1926 649.218C73.7173 649.218 72.9796 648.481 72.9796 647.007Z" fill="white"/>
<g opacity="0.7">
<path opacity="0.7" d="M431.278 589.35L430.541 578.298L419.476 577.561L430.541 576.824L431.278 565.772L432.016 576.824L443.081 577.561L432.016 578.298L431.278 589.35Z" fill="white"/>
<path opacity="0.7" d="M426.85 582.719L430.538 577.561L426.85 572.404L431.276 576.825L436.439 572.404L432.014 577.561L436.439 581.982L431.276 578.298L426.85 582.719Z" fill="white"/>
</g>
<g opacity="0.7">
<path opacity="0.7" d="M591.106 529.3L590.369 518.248L579.304 517.511L590.369 516.774L591.106 505.722L591.844 516.774L602.909 517.511L591.844 518.248L591.106 529.3Z" fill="white"/>
<path opacity="0.7" d="M586.678 522.669L590.366 517.511L586.678 512.354L591.104 516.775L596.267 512.354L591.842 517.511L596.267 521.932L591.104 518.248L586.678 522.669Z" fill="white"/>
</g>
<g opacity="0.7">
<path opacity="0.7" d="M508.447 1098.75L506.972 1088.44L496.645 1086.96H506.972L508.447 1075.17L509.185 1086.96H520.25L509.185 1088.44L508.447 1098.75Z" fill="white"/>
<path opacity="0.7" d="M503.282 1092.12L506.97 1087.7L503.282 1082.54L507.707 1086.23L513.608 1082.54L509.183 1086.96L513.608 1092.12L508.445 1088.44L503.282 1092.12Z" fill="white"/>
</g>
</svg>
